*
G04 Job   : E:\2017\SWARM\HARDWARE\SWARM_SCHEMATICS\PCB\PCB.pcb*
G04 User  : WIN10:root*
G04 Layer : EtchLayerBottom.gdo*
G04 Date  : Tue Dec 20 14:00:09 2016*
G04 Mentor Graphics Example Gerber Output Definition*
%ICAS*%
%MOIN*%
%FSLAX24Y24*%
%OFA0.0000B0.0000*%
G90*
G74*
%AMVB_RECTANGLE*
21,1,$1,$2,0,0,$3*
%
%ADD10C,0.00000*%
%ADD13C,0.00591*%
%ADD18C,0.01181*%
%ADD14C,0.01378*%
%ADD16C,0.01575*%
%ADD12C,0.01969*%
%ADD17C,0.02362*%
%ADD15C,0.03150*%
%ADD11C,0.03937*%
%ADD23C,0.05906*%
%ADD27C,0.06299*%
%ADD22VB_RECTANGLE,0.05906X0.05906X90.00000*%
%ADD28VB_RECTANGLE,0.06299X0.06299X180.00000*%
%ADD24VB_RECTANGLE,0.01772X0.06299X270.00000*%
%ADD20VB_RECTANGLE,0.02756X0.01575X270.00000*%
%ADD71VB_RECTANGLE,0.03543X0.03150X270.00000*%
%ADD19VB_RECTANGLE,0.03937X0.02362X0.00000*%
%ADD70VB_RECTANGLE,0.03937X0.02362X90.00000*%
%ADD21VB_RECTANGLE,0.03937X0.07087X270.00000*%
%ADD25VB_RECTANGLE,0.05906X0.08661X270.00000*%
%ADD26VB_RECTANGLE,0.07480X0.20866X180.00000*%
G01*
G36*
X118Y18156D02*
G02X148Y18186I30D01*
X169Y18177J30*
G01X464Y17882*
Y6374*
G03X504Y6277I138*
G01X644Y6137*
Y3568*
G03X920Y3292I276*
X1195Y3568J276*
X920Y3843I275*
X644Y3568J275*
G01Y6137*
X797Y5984*
G03X895Y5944I98J98*
G01X1501*
Y1988*
G03X1996Y1492I495*
X2491Y1988J496*
X1996Y2483I495*
X1501Y1988J495*
G01Y5944*
X2222*
G03X2319Y5984J138*
G01X2509Y6174*
G02X2528Y6182I21J21*
G03X2642Y6225I9J197*
G01Y3798*
G03X2721Y3719I79*
G01X2746*
G02X2775Y3690J29*
X2768Y3671I29*
G03X2721Y3543I150J128*
X2918Y3346I197*
X3115Y3543J197*
X3067Y3671I197*
G02X3060Y3690I23J19*
X3090Y3719I30*
G01X3115*
G03X3193Y3798J79*
G01Y4034*
G03X3115Y4113I78*
G01X2721*
G03X2642Y4034J79*
G01Y4349*
G03X2721Y4271I79*
G01X3115*
G03X3193Y4349J78*
G02X3223Y4379I30*
G01X3255*
G02X3263Y4378J30*
G03X3287Y4374I24J85*
G01X3973*
G02X3998Y4360J29*
G03X4166Y4266I168J103*
X4363Y4463J197*
X4166Y4660I197*
X3998Y4566J197*
G02X3973Y4552I25J15*
G01X3314*
G02X3306Y4553J29*
G03X3282Y4556I24J86*
G01X3223*
G02X3193Y4586J30*
G03X3115Y4664I78*
G01X2721*
G03X2642Y4586J78*
G01Y6225*
G03X2716Y6379I123J154*
X2645Y6531I197*
G02X2634Y6553I19J22*
X2664Y6583I30*
G01X2727*
G02X2748Y6574J30*
G01X4179Y5144*
G03X4241Y5118I62J63*
G01X4533*
Y2558*
G03X4730Y2361I197*
X4901Y2460J197*
G02X4927Y2475I26J15*
X4956Y2445J30*
G01Y2382*
G03X5035Y2304I79*
G01X5271*
G03X5350Y2382J78*
G01Y2776*
G03X5271Y2855I79*
G01X5035*
G03X4956Y2776J79*
G01Y2697*
G02X4927Y2668I29*
G01X4909*
G02X4885Y2679J29*
G03X4833Y2726I155J121*
G02X4819Y2751I15J25*
G01Y2765*
G02X4828Y2786I29*
G01X5216Y3174*
G03X5242Y3237I63J63*
G01Y3391*
G02X5271Y3420I29*
G03X5350Y3499J79*
G01Y3893*
G03X5271Y3972I79*
G01X5035*
G03X4956Y3893J79*
G01Y3499*
G03X5035Y3420I79*
G02X5064Y3391J29*
G01Y3286*
G02X5056Y3265I29*
G01X4668Y2877*
G03X4642Y2814I62J63*
G01Y2751*
G02X4628Y2726I30*
G03X4533Y2558I102J168*
G01Y5118*
X5507*
Y3499*
G03X5586Y3420I79*
G02X5616Y3391J29*
G01Y3325*
G03X5618Y3302I88*
G02X5619Y3295I28J7*
G01Y3221*
G02X5605Y3196I29*
G03X5511Y3028I103J168*
X5563Y2895I197*
G02X5571Y2875I22J20*
X5554Y2848I30*
G03X5507Y2776I32J72*
G01Y2382*
G03X5586Y2304I79*
G01X5822*
G03X5883Y2332J78*
G01Y1523*
G03X6080Y1327I197*
X6277Y1523J196*
X6271Y1570I197*
G02X6270Y1576I29J6*
X6279Y1597I30*
G01X6305Y1623*
G03X6331Y1686I63J63*
G01Y1737*
G02X6349Y1765I29*
G03X6399Y1838I28J73*
G01Y2114*
G03X6321Y2192I78*
G01X6163*
G03X6084Y2114J78*
G01Y1838*
G03X6119Y1773I79*
G02X6132Y1749I17J24*
X6102Y1719I30*
X6099J30*
G03X6080Y1720I19J196*
X5883Y1523J197*
G01Y2332*
G03X5901Y2382I61J50*
G01Y2461*
G02X5931Y2491I30*
G01X6138*
G02X6167Y2461J30*
G01Y2382*
G03X6246Y2304I79*
G01X6478*
Y1838*
G03X6528Y1765I79*
G02X6547Y1737I10J28*
G01Y1694*
G03X6573Y1632I89*
G01X6624Y1580*
G02X6633Y1560I21J20*
X6632Y1553I30*
G03X6626Y1506I191J47*
X6823Y1310I197*
X7020Y1506J196*
X6823Y1703I197*
X6777Y1698J197*
G02X6770Y1697I7J29*
X6749Y1706J30*
G01X6737Y1718*
G02X6728Y1739I21J21*
X6746Y1766I30*
G03X6793Y1838I32J72*
G01Y2114*
G03X6714Y2192I79*
G01X6557*
G03X6478Y2114J78*
G01Y2304*
X6482*
G03X6561Y2382J78*
G01Y2776*
G03X6482Y2855I79*
G01X6246*
G03X6167Y2776J79*
G01Y2697*
G02X6138Y2668I29*
G01X5931*
G02X5901Y2697J29*
G01Y2776*
G03X5859Y2846I79*
G02X5843Y2872I13J26*
X5851Y2892I29*
G03X5905Y3028I143J136*
X5811Y3196I197*
G02X5797Y3221I15J25*
G01Y3321*
G03X5794Y3343I89*
G02X5793Y3351I28J8*
G01Y3391*
G02X5822Y3420I29*
G03X5901Y3499J79*
G01Y3893*
G03X5822Y3972I79*
G01X5586*
G03X5507Y3893J79*
G01Y5118*
X6728*
G03X6738Y5119J89*
G01Y2382*
G03X6797Y2323I59*
G01X7034*
G03X7093Y2382J59*
G01Y2776*
G03X7034Y2835I59*
G01X6797*
G03X6738Y2776J59*
G01Y5119*
G03X6791Y5144I10J88*
G01X7782Y6135*
G02X7803Y6144I21J21*
X7810Y6143J30*
G03X7856Y6138I46J191*
X8024Y6232J196*
G02X8049Y6246I25J16*
G01X8249*
G03X8253J88*
G01X8254*
G02X8284Y6217J29*
G01Y6163*
G03X8304Y6111I79*
G01Y5454*
G03X8363Y5395I59*
G01X8599*
G03X8658Y5454J59*
G01Y5848*
G03X8599Y5907I59*
G01X8363*
G03X8304Y5848J59*
G01Y6111*
G03X8363Y6084I59J52*
G01X8599*
G03X8678Y6163J79*
G01Y6557*
G03X8599Y6636I79*
G02X8569Y6665J29*
G01Y6717*
G03X8567Y6739I88*
G02X8566Y6746I28J7*
G01Y6772*
G02X8595Y6802I29*
G03X8674Y6881J79*
G01Y7274*
G03X8595Y7353I79*
G01X8359*
G03X8280Y7274J79*
G01Y6881*
G03X8359Y6802I79*
G02X8388Y6772J30*
G01Y6721*
G03X8391Y6699I89*
G02X8392Y6691I28J8*
G01Y6665*
G02X8363Y6636I29*
G03X8284Y6557J79*
G01Y6476*
G02X8259Y6447I30*
G03X8219Y6429I15J87*
G02X8201Y6423I18J24*
G01X8049*
G02X8024Y6437J30*
G03X7856Y6531I168J103*
X7659Y6334J197*
X7665Y6288I197*
G02X7666Y6281I29J7*
X7657Y6261I30*
G01X6700Y5304*
G02X6680Y5295I20J21*
G01X4290*
G02X4269Y5304J30*
G01X3191Y6382*
G02X3182Y6403I21J21*
X3212Y6433I30*
G01X3548*
G02X3568Y6425J30*
G03X3700Y6374I132J145*
X3897Y6570J196*
X3700Y6767I197*
X3568Y6716J197*
G02X3548Y6708I20J22*
G01X3266*
G02X3245Y6717J30*
G01X3221Y6741*
G02X3212Y6762I21J21*
G01Y7088*
G02X3242Y7118I30*
G01X3271*
G03X3350Y7196J78*
G01Y7433*
G03X3271Y7511I79*
G01X2878*
G03X2808Y7468J78*
G02X2781Y7452I27J14*
G01X2740*
G03X2642Y7412J138*
G01X2598Y7367*
G02X2577Y7359I21J21*
G01X2367*
G02X2347Y7366J29*
G03X2215Y7418I132J145*
X2062Y7344J197*
G02X2039Y7333I23J19*
X2009Y7363J30*
G01Y7478*
G03X1950Y7537I59*
G01X1556*
G03X1497Y7478J59*
G01Y7242*
G03X1556Y7183I59*
G01X1950*
G03X1980Y7191J59*
G02X1995Y7195I15J25*
X2024Y7173J29*
G03X2215Y7024I191J48*
X2347Y7075J197*
G02X2367Y7083I20J22*
G01X2646*
G03X2744Y7123J138*
G01X2771Y7151*
G02X2792Y7160I21J21*
X2815Y7148J30*
G03X2878Y7118I63J48*
G01X2907*
G02X2937Y7088J30*
G01Y6708*
G02X2907Y6678I30*
X2886Y6687J30*
G01X2839Y6734*
G03X2776Y6760I63J62*
G01X1507*
G02X1486Y6769J30*
G01X1391Y6864*
G02X1382Y6885I21J21*
G01Y7688*
G02X1391Y7709I30*
G01X1442Y7760*
G02X1463Y7768I21J21*
X1488Y7754J29*
G03X1556Y7714I68J39*
G01X1950*
G03X2023Y7764J79*
G02X2051Y7783I28J10*
G01X2152*
G03X2167Y7784J128*
G02X2171I4J29*
X2177J29*
G03X2217Y7780I40J192*
X2414Y7976J196*
X2362Y8110I197*
G02X2354Y8130I22J20*
G01Y8258*
G02X2370Y8285I30*
G03X2413Y8355I36J70*
G01Y8748*
G03X2334Y8827I79*
G01X2098*
G03X2019Y8748J79*
G01Y8355*
G03X2062Y8285I79*
G02X2079Y8258I13J27*
G01Y8128*
G02X2071Y8108I30*
G03X2054Y8086I146J132*
G02X2029Y8073I25J17*
X2008Y8083J30*
G03X1950Y8108I58J54*
G01X1556*
G03X1478Y8029J79*
G01Y8028*
G02X1453Y7998I30*
G03X1405Y7974I15J87*
G01X1231Y7800*
G03X1208Y7761I63J63*
G02X1180Y7739I28J7*
X1150Y7768J29*
G01Y8654*
G02X1159Y8675I30*
G01X1488Y9004*
Y8355*
G03X1547Y8296I59*
G01X1783*
G03X1842Y8355J59*
G01Y8748*
G03X1783Y8807I59*
G01X1547*
G03X1488Y8748J59*
G01Y9004*
X1489*
G03X1529Y9102I98J98*
G01Y9216*
G02X1558Y9246I29*
X1584Y9232J30*
G03X2007Y8994I423J257*
X2502Y9489J495*
X2007Y9985I495*
X1584Y9747J496*
G02X1558Y9733I26J15*
X1529Y9762J29*
G01Y9870*
G02X1538Y9891I29*
G01X1985Y10338*
G02X2004Y10347I21J21*
G03X2192Y10543I9J196*
G01Y10544*
G03X1995Y10740I197*
X1799Y10553J196*
G02X1790Y10533I30J1*
G01X1294Y10037*
G03X1253Y9939I97J98*
G01Y9461*
G02X1224Y9431I29*
X1205Y9438J30*
G03X1078Y9484I127J151*
X881Y9297J197*
G02X873Y9277I29J1*
G01X504Y8909*
G03X464Y8811I98J98*
G01Y17882*
X1227Y17119*
G03X1324Y17079I97J97*
G01X1398*
Y15459*
G03X1477Y15380I79*
G01X1871*
G03X1950Y15459J79*
G02X1979Y15488I29*
G01X2236*
G03X2249Y15489J89*
G02X2253Y15490I4J29*
X2278Y15476J30*
G03X2445Y15382I167J103*
X2642Y15579J197*
X2445Y15776I197*
X2277Y15682J197*
G02X2252Y15668I25J15*
G01X2239*
G03X2221Y15666J89*
G02X2215I6J29*
G01X1979*
G02X1950Y15695J29*
G03X1871Y15774I79*
G01X1477*
G03X1398Y15695J79*
G01Y17079*
X1418*
Y16010*
G03X1477Y15951I59*
G01X1871*
G03X1930Y16010J59*
G01Y16246*
G03X1871Y16305I59*
G01X1477*
G03X1418Y16246J59*
G01Y17079*
X2711*
G02X2715Y17078J30*
G01Y12046*
G03X2809Y11878I197*
G02X2824Y11853I15J25*
G01Y11819*
G03Y11806I88*
G02X2825Y11802I29J4*
X2799Y11772I30*
G03X2730Y11694I10J78*
G01Y11301*
G03X2809Y11222I79*
G01X2819*
Y7748*
G03X2878Y7688I59*
G01X3271*
G03X3330Y7748J60*
G01Y7984*
G03X3271Y8043I59*
G01X2878*
G03X2819Y7984J59*
G01Y11222*
X3045*
G03X3124Y11301J79*
G01Y11694*
G03X3045Y11773I79*
G02X3015Y11802J29*
G01Y11804*
G03X3007Y11842I88*
G02X3004Y11855I26J13*
X3017Y11880I29*
G03X3109Y12046I105J166*
X2912Y12243I197*
X2715Y12046J197*
G01Y17078*
G02X2732Y17070I4J29*
G01X2733Y17068*
G03X2831Y17028I98J98*
G01X2866*
Y13978*
G03X3063Y13781I197*
X3168Y13811J197*
G02X3184Y13816I16J25*
X3204Y13808J30*
G01X3212Y13800*
G02X3222Y13778I20J22*
X3219Y13765I30*
G03X3196Y13674I174J91*
X3281Y13512I197*
G01Y11301*
G03X3360Y11222I79*
G01X3596*
G03X3675Y11301J79*
G01Y11313*
G02X3704Y11342I29*
X3721Y11337J29*
G03X3836Y11301I115J160*
X4032Y11497J196*
X3836Y11694I196*
X3721Y11658J197*
G02X3704Y11652I17J24*
X3675Y11682J30*
G01Y11694*
G03X3596Y11773I79*
G01X3360*
G03X3281Y11694J79*
G01Y13512*
G03X3393Y13477I112J162*
X3561Y13571J197*
G02X3586Y13585I25J15*
G01X4107*
Y10001*
G03X4186Y9923I79*
G01X4227*
G02X4256Y9898J30*
G03X4281Y9850I88J15*
G01X4392Y9739*
G03X4455Y9713I63J62*
G01X4481*
Y9214*
G03X4533Y9140I79*
G01Y7349*
G03X4587Y7274I79*
G02X4608Y7246I9J28*
X4598Y7224I30*
G03X4533Y7078I132J146*
X4730Y6882I197*
X4898Y6976J196*
G02X4923Y6990I25J16*
G01X5668*
Y6021*
G03X6163Y5526I495*
X6659Y6021J495*
X6163Y6517I496*
X5668Y6021J496*
G01Y6990*
X6523*
G02X6531Y6989J30*
G03X6538Y6987I22J86*
G02X6563Y6958I5J29*
G01Y6878*
G03X6642Y6799I79*
G01X6876*
Y6543*
G03X7073Y6346I197*
X7270Y6543J197*
X7264Y6589I197*
G02Y6596I29J7*
X7272Y6617I29*
G01X7373Y6718*
G03X7399Y6772I62J63*
G02X7428Y6799I29J3*
G01X7429*
G03X7508Y6878J79*
G01Y7271*
G03X7429Y7350I79*
G02X7399Y7380J30*
G01Y7491*
G03X7377Y7550I88*
G02X7369Y7570I22J20*
G01Y7632*
G02X7399Y7661I30*
G01X7438*
G03X7517Y7740J79*
G01Y8094*
G03X7438Y8173I79*
G01X7123*
G03X7044Y8094J79*
G01Y7740*
G03X7123Y7661I79*
G01X7163*
G02X7192Y7632J29*
G01Y7521*
G03X7215Y7462I89*
G02X7222Y7442I22J20*
G01Y7380*
G02X7193Y7350I29*
G03X7114Y7271J79*
G01Y6878*
G03X7157Y6807I79*
G02X7173Y6781I13J26*
X7165Y6760I29*
G01X7147Y6742*
G02X7126Y6734I21J21*
X7119Y6735J29*
G03X7073Y6740I46J192*
X6876Y6543J197*
G01Y6799*
X6878*
G03X6957Y6878J79*
G01Y7271*
G03X6878Y7350I79*
G01X6642*
G03X6563Y7271J79*
G01Y7196*
G02X6533Y7167I30*
G01X4923*
G02X4898Y7181J29*
G03X4862Y7224I168J103*
G02X4852Y7246I20J22*
X4873Y7274I30*
G03X4927Y7349I25J75*
G01Y7743*
G03X4848Y7822I79*
G01X4612*
G03X4533Y7743J79*
G01Y9140*
G03X4560Y9135I27J74*
G01X4600*
G02X4629Y9106J29*
G01Y8267*
G03X4655Y8204I89*
G01X4911Y7948*
G03X4974Y7922I63J62*
G01X5053*
G02X5074Y7913J30*
G01X5130Y7857*
G02X5139Y7837I21J20*
X5124Y7811I30*
G03X5084Y7743I39J68*
G01Y7349*
G03X5163Y7270I79*
G01X5399*
G03X5478Y7349J79*
G01Y7428*
G02X5508Y7457I30*
G01X5910*
G03X5946Y7465J89*
G02X5958Y7467I12J27*
X5982Y7455J29*
G03X6141Y7374I159J115*
X6338Y7570J196*
X6141Y7767I197*
X5973Y7673J197*
G02X5948Y7659I25J16*
G01X5934*
G03X5880Y7641J89*
G02X5862Y7635I18J23*
G01X5508*
G02X5478Y7664J29*
G01Y7743*
G03X5399Y7822I79*
G01X5398*
G02X5369Y7846J29*
G03X5344Y7894I88J15*
G01X5165Y8073*
G03X5102Y8099I63J63*
G01X5023*
G02X5002Y8108J30*
G01X4815Y8295*
G02X4806Y8316I21J21*
G01Y9106*
G02X4836Y9135I30*
G01X4875*
G03X4954Y9214J79*
G01Y9568*
G03X4875Y9647I79*
G01X4560*
G03X4481Y9568J79*
G01Y9713*
X5023*
Y9082*
G03X5091Y8933I196*
G02X5101Y8910I19J23*
G01Y8886*
G02X5080Y8858I29*
G03X5023Y8782I21J76*
G01Y8388*
G03X5101Y8309I78*
G01X5337*
G03X5416Y8388J79*
G01Y8782*
G03X5359Y8858I79*
G02X5337Y8886I8J28*
G01Y8910*
G02X5348Y8933I30*
G03X5416Y9082I129J149*
X5219Y9279I197*
X5023Y9082J197*
G01Y9713*
X5574*
Y8388*
G03X5652Y8309I78*
G01X5889*
G03X5967Y8388J79*
G01Y8439*
G02X5993Y8468I30*
G03X6061Y8501I16J117*
G01X6219Y8659*
G03X6253Y8743I84J84*
G01Y9111*
G02X6283Y9140I30*
G01X6292*
G03X6371Y9219J79*
G01Y9573*
G03X6292Y9652I79*
G01X5978*
G03X5899Y9573J79*
G01Y9219*
G03X5978Y9140I79*
G01X5987*
G02X6017Y9111J29*
G01Y8826*
G02X5987Y8797I30*
X5960Y8814J29*
G03X5889Y8861I71J32*
G01X5652*
G03X5574Y8782J79*
G01Y9713*
X6035*
G03X6097Y9739J88*
G01X6181Y9822*
G03X6207Y9885I63J63*
G01Y10446*
G02X6216Y10467I29*
G01X6292Y10544*
Y10006*
G03X6352Y9947I60*
G01X6666*
G03X6670J59*
G01Y8528*
G03X6749Y8449I79*
G01X7064*
G03X7143Y8528J79*
G01Y8882*
G03X7064Y8961I79*
G01X7025*
G02X6995Y8990J29*
G01Y9656*
G02X7004Y9676I30*
G01X7094Y9767*
G02X7115Y9776I21J21*
X7122Y9775J30*
G03X7168Y9769I46J191*
X7365Y9966J197*
X7168Y10163I197*
X6971Y9966J197*
X6977Y9920I197*
G02X6978Y9913I29J7*
X6969Y9892I30*
G01X6844Y9767*
G03X6818Y9704I63J63*
G01Y8990*
G02X6789Y8961I29*
G01X6749*
G03X6670Y8882J79*
G01Y9947*
G03X6726Y10006I4J59*
G01Y10361*
G03X6666Y10420I60*
G01X6352*
G03X6292Y10361J59*
G01Y10544*
X6615Y10866*
G02X6635Y10875I20J21*
G01X7246*
G02X7271Y10860J30*
G03X7438Y10766I168J103*
G01Y8528*
G03X7497Y8468I59*
G01X7812*
G03X7871Y8528J60*
G01Y8882*
G03X7812Y8941I59*
G01X7497*
G03X7438Y8882J59*
G01Y10766*
X7439*
G03X7636Y10963J197*
X7439Y11160I197*
X7271Y11066J197*
G02X7246Y11052I25J15*
G01X6587*
G03X6524Y11026J89*
G01X6056Y10558*
G03X6030Y10495I62J63*
G01Y10432*
G02X6000Y10402I30*
X5978Y10412J30*
G03X5918Y10439I60J51*
G01X5879*
G02X5850Y10469J30*
G01Y10643*
G02X5864Y10668I29*
G03X5958Y10836I103J168*
X5761Y11033I197*
X5564Y10836J197*
X5658Y10668I197*
G02X5672Y10643I15J25*
G01Y10469*
G02X5643Y10439I29*
G01X5603*
G03X5525Y10361J78*
G01Y10006*
G03X5556Y9943I78*
G02X5568Y9920I17J23*
X5539Y9890I29*
G01X5283*
G02X5254Y9920J30*
X5272Y9947I29*
G03X5308Y10001I23J54*
G01Y10356*
G03X5249Y10415I59*
G01X4934*
G03X4875Y10356J59*
G01Y10001*
G03X4912Y9947I59*
G02X4930Y9920I12J27*
X4900Y9890I30*
G01X4572*
G02X4542Y9920J30*
X4553Y9942I30*
G03X4580Y10001I52J59*
G01Y10356*
G03X4501Y10434I79*
G01X4186*
G03X4107Y10356J78*
G01Y13585*
X5498*
G02X5523Y13571J29*
G03X5534Y13556I168J103*
G01Y11553*
G03X5612Y11474I78*
G01X6203*
G03X6282Y11553J79*
G01Y11577*
G02X6311Y11606I29*
G01X6495*
G02X6521Y11590J29*
G03X6591Y11547I70J36*
G01X6827*
G03X6906Y11626J79*
G01Y11726*
G02X6908Y11738I30*
G03X6926Y11823I199J85*
X6908Y11907I217*
G02X6906Y11919I28J12*
G01Y12019*
G03X6827Y12098I79*
G01X6591*
G03X6521Y12055J79*
G02X6495Y12039I26J14*
G01X6311*
G02X6282Y12069J30*
G01Y12144*
G03X6203Y12222I79*
G01X5612*
G03X5534Y12144J78*
G01Y12848*
G03X5908Y12474I374*
X6229Y12657J374*
G02X6254Y12671I25J15*
G01X6993*
G02X7022Y12642J29*
G01Y12298*
G03X7036Y12253I79*
G02X7042Y12236I24J17*
G01Y12160*
G03X7044Y12132I216*
G02Y12128I30J4*
G01Y11823*
G03X7061Y11738I216*
G02X7063Y11726I27J12*
G01Y11626*
G03X7142Y11547I79*
G01X7378*
G03X7457Y11626J79*
G01Y11726*
G02X7460Y11738I30*
G03X7477Y11823I200J85*
G01Y12158*
G03X7475Y12186I217*
G02Y12190I29J4*
G01Y12236*
G02X7480Y12253I29*
G03X7495Y12298I64J45*
G01Y12642*
G02X7524Y12671I29*
G01X8203*
Y11553*
G03X8282Y11474I79*
G01X8831*
Y6881*
G03X8835Y6857I79*
G01Y6163*
G03X8914Y6084I79*
G02X8943Y6055J29*
G01Y5956*
G02X8914Y5927I29*
G03X8835Y5848J79*
G01Y5454*
G03X8914Y5376I79*
G01X9150*
G03X9229Y5454J78*
G01Y5848*
G03X9150Y5927I79*
G02X9120Y5956J29*
G01Y6055*
G02X9150Y6084I30*
G03X9229Y6163J79*
G01Y6242*
G02X9258Y6271I29*
G01X9570*
G03X9633Y6297J89*
G01X9684Y6349*
G02X9705Y6357I21J21*
X9728Y6346J29*
G03X9884Y6270I156J121*
X10081Y6467J197*
X10075Y6513I197*
G02X10074Y6520I29J7*
X10083Y6541I30*
G01X10232Y6690*
G03X10258Y6752I63J62*
G01Y6770*
G02X10287Y6799I29*
G03X10366Y6878J79*
G01Y7272*
G03X10287Y7351I79*
G01X10051*
G03X9972Y7272J79*
G01Y6878*
G03X10031Y6802I79*
G02X10053Y6773I8J29*
X10044Y6753I30*
G01X9958Y6666*
G02X9937Y6657I21J21*
X9930Y6658J30*
G03X9884Y6664I46J191*
X9716Y6570J197*
G02X9691Y6555I25J15*
G01X9677*
G03X9614Y6529J88*
G01X9542Y6457*
G02X9521Y6449I21J21*
G01X9258*
G02X9229Y6478J29*
G01Y6557*
G03X9150Y6636I79*
G01X8914*
G03X8835Y6557J79*
G01Y6857*
G03X8910Y6802I75J24*
G01X9146*
G03X9225Y6881J79*
G01Y6959*
G02X9255Y6989I30*
G01X9387*
G02X9393Y6988J30*
G03X9397I18J87*
G02X9421Y6959I5J29*
G01Y6878*
G03X9500Y6799I79*
G01X9736*
G03X9815Y6878J79*
G01Y7272*
G03X9736Y7351I79*
G01X9500*
G03X9421Y7272J79*
G01Y7196*
G02X9392Y7166I29*
G01X9255*
G02X9225Y7196J30*
G01Y7274*
G03X9146Y7353I79*
G01X8910*
G03X8831Y7274J79*
G01Y11474*
X8873*
G03X8951Y11553J79*
G01Y11602*
G02X8981Y11632I30*
G01X9143*
G02X9145J30*
G03X9154Y11631I16J216*
G02X9180Y11615I1J29*
G03X9250Y11572I70J36*
G01X9486*
G03X9565Y11651J79*
G01Y11751*
G02X9567Y11763I29*
G03X9584Y11848I199J85*
X9567Y11933I216*
G02X9565Y11944I27J11*
G01Y12045*
G03X9486Y12123I79*
G01X9250*
G03X9180Y12081J78*
G02X9154Y12065I26J13*
G01X8981*
G02X8951Y12094J29*
G01Y12144*
G03X8873Y12222I78*
G01X8282*
G03X8203Y12144J78*
G01Y12671*
X8231*
G02X8256Y12657J29*
G03X8577Y12474I321J191*
X8951Y12848J374*
X8577Y13222I374*
X8256Y13040J374*
G02X8231Y13026I25J15*
G01X7873*
G02X7843Y13055J29*
X7845Y13065I30*
G03X7849Y13086I55J21*
G01Y13440*
G03X7790Y13499I59*
G01X7475*
G03X7416Y13440J59*
G01Y13086*
G03X7419Y13065I59*
G02X7421Y13055I27J10*
X7392Y13026I29*
G01X7146*
G02X7116Y13055J29*
X7117Y13063I30*
G03X7120Y13086I75J23*
G01Y13440*
G03X7042Y13519I78*
G01X7002*
G02X6973Y13548J29*
G01Y13560*
G03X6964Y13600I89*
G02X6960Y13613I26J13*
G01Y13618*
G02X6975Y13643I30*
G03X7063Y13765I103J168*
G02X7092Y13788I29J6*
X7109Y13783J29*
G03X7220Y13748I111J162*
X7388Y13842J197*
G02X7413Y13857I25J15*
G01X8569*
G02X8590Y13848J30*
G01X9234Y13204*
G03X9282Y13179I63J63*
G02X9307Y13150I5J29*
G01Y13089*
G03X9385Y13011I78*
G01X9681*
Y12302*
G03X9695Y12257I78*
G02X9700Y12240I24J17*
G01Y12174*
G03X9702Y12146I217*
G02Y12142I29J4*
G01Y11848*
G03X9720Y11763I217*
G02X9722Y11751I27J12*
G01Y11651*
G03X9801Y11572I79*
G01X10037*
G03X10116Y11651J79*
G01Y11751*
G02X10118Y11763I29*
G03X10136Y11848I199J85*
G01Y12172*
G03X10134Y12201I217*
G02X10133Y12205I29J4*
G01Y12240*
G02X10139Y12257I30*
G03X10153Y12302I65J45*
G01Y12656*
G03X10074Y12735I79*
G01X9759*
G03X9681Y12656J79*
G01Y13011*
X9700*
G03X9779Y13089J78*
G01Y13444*
G03X9700Y13522I79*
G01X9385*
G03X9307Y13450J78*
G02X9277Y13423I30J3*
X9257Y13432J30*
G01X8681Y14008*
G03X8618Y14034I63J63*
G01X7413*
G02X7388Y14048J29*
G03X7220Y14142I168J103*
X7029Y13991J197*
G02X7000Y13968I29J7*
X6983Y13973J30*
G03X6872Y14008I111J162*
X6675Y13811J197*
X6769Y13643I197*
G02X6783Y13618I15J25*
G01Y13573*
G03X6785Y13554I89*
G02X6786Y13548I29J6*
X6756Y13519I30*
G01X6727*
G03X6648Y13440J79*
G01Y13086*
G03X6651Y13063I79*
G02X6652Y13055I28J8*
X6623Y13026I29*
G01X6254*
G02X6229Y13040J29*
G03X5908Y13222I321J192*
X5534Y12848J374*
G01Y13556*
G03X5691Y13477I157J118*
X5888Y13674J197*
X5804Y13835I197*
G02X5791Y13860I17J25*
X5821Y13889I30*
G01X5960*
G02X5985Y13875J29*
G03X6153Y13781I168J103*
X6350Y13978J197*
X6239Y14154I197*
G02X6223Y14181I13J27*
X6252Y14210I29*
G01X10074*
Y13089*
G03X10133Y13030I59*
G01X10161*
Y8279*
G03X10357Y8083I196*
X10514Y8159J196*
G02X10537Y8171I23J18*
X10562Y8157J30*
G03X10629Y8120I67J42*
G01X10865*
G03X10944Y8199J79*
G01Y8593*
G03X10865Y8671I79*
G02X10835Y8701J30*
G01Y8807*
G02X10865Y8836I30*
G03X10944Y8915J79*
G01Y9309*
G03X10865Y9388I79*
G01X10629*
G03X10550Y9309J79*
G01Y8915*
G03X10629Y8836I79*
G02X10658Y8807J29*
G01Y8701*
G02X10629Y8671I29*
G03X10550Y8593J78*
G01Y8514*
G02X10520Y8484I30*
G01X10474*
G03X10430Y8473J88*
G02X10415Y8469I15J25*
X10408Y8470J29*
G03X10357Y8476I51J191*
X10161Y8279J197*
G01Y13030*
X10448*
G03X10507Y13089J59*
G01Y13444*
G03X10448Y13503I59*
G01X10133*
G03X10074Y13444J59*
G01Y14210*
X10496*
G02X10516Y14202J29*
G01X10696Y14022*
G02X10705Y14001I21J21*
G01Y12789*
G03X10731Y12726I88*
G01X10950Y12507*
G03X11013Y12481I63J62*
G01X11121*
Y8199*
G03X11180Y8140I59*
G01X11275*
Y6539*
G03X11334Y6480I59*
G01X11850*
Y1496*
G03X12126Y1220I276*
X12402Y1496J276*
X12126Y1772I276*
X11850Y1496J276*
G01Y6480*
X14595*
G03X14654Y6539J59*
G01Y7592*
G03X14595Y7651I59*
G01X11334*
G03X11275Y7592J59*
G01Y8140*
X11416*
G03X11475Y8199J59*
G01Y8593*
G03X11416Y8652I59*
G01X11180*
G03X11121Y8593J59*
G01Y8915*
G03X11180Y8856I59*
G01X11416*
G03X11475Y8915J59*
G01Y9309*
G03X11416Y9368I59*
G01X11180*
G03X11121Y9309J59*
G01Y12481*
X11158*
G02X11188Y12451J30*
G03X11267Y12372I79*
G01X11345*
G02X11375Y12343J29*
G01Y12280*
G03X11377Y12262I88*
G02Y12256I29J6*
G01Y12214*
G02X11348Y12185I29*
G01X11269*
G03X11190Y12106J79*
G01Y11319*
G03X11269Y11240I79*
G01X11663*
G03X11741Y11319J79*
G02X11771Y11348I30*
G01X12030*
Y8489*
G03X12148Y8371I118*
G01X12778*
G03X12896Y8489J118*
G01Y9119*
G03X12778Y9237I118*
G01X12148*
G03X12030Y9119J118*
G01Y11348*
X12175*
G02X12202Y11329J29*
G03X12404Y11191I202J78*
G01X13069*
Y8804*
G03X13463Y8410I394*
X13857Y8804J394*
X13463Y9197I394*
X13069Y8804J393*
G01Y11191*
X13466*
G02X13489Y11179J30*
G03X13785Y11033I296J228*
X14159Y11407J374*
X13785Y11781I374*
X13489Y11636J374*
G02X13466Y11624I23J18*
G01X12404*
G03X12231Y11537J217*
G02X12207Y11525I24J18*
G01X11771*
G02X11741Y11555J30*
G03X11663Y11634I78*
G01X11269*
G03X11190Y11555J79*
G01Y11870*
G03X11269Y11791I79*
G01X11663*
G03X11741Y11870J79*
G01Y12106*
G03X11663Y12185I78*
G01X11584*
G02X11554Y12214J29*
G01Y12277*
G03X11553Y12295I88*
G02X11552Y12301I29J6*
G01Y12343*
G02X11582Y12372I30*
G01X11660*
G03X11739Y12451J79*
G02X11769Y12481I30*
G01X11867*
G02X11897Y12451J30*
G03X11975Y12373I78J1*
G01X12369*
G03X12448Y12452J79*
G01Y12688*
G03X12369Y12767I79*
G01X11975*
G03X11897Y12688J79*
G01Y12687*
G02X11867Y12658I30*
G01X11769*
G02X11739Y12687J29*
G03X11660Y12766I79*
G01X11267*
G03X11188Y12687J79*
G02X11158Y12658I30*
G01X11062*
G02X11041Y12666J29*
G01X10890Y12817*
G02X10882Y12838I21J21*
G01Y14050*
G03X10856Y14113I89*
G01X10607Y14362*
G03X10544Y14388I63J63*
G01X3628*
G02X3603Y14402J29*
G03X3435Y14496I168J103*
X3238Y14299J197*
X3348Y14122I197*
G02X3365Y14096I13J26*
X3335Y14066I30*
G01X3256*
G02X3231Y14080J30*
G03X3063Y14175I168J102*
X2866Y13978J197*
G01Y17028*
X4217*
Y14680*
G03X4276Y14621I59*
G01X4512*
G03X4571Y14680J59*
G01Y15074*
G03X4512Y15133I59*
G01X4276*
G03X4217Y15074J59*
G01Y17028*
X4705*
Y15662*
G03X4799Y15494I197*
G02X4813Y15469I15J25*
G01Y15425*
G03X4839Y15363I89*
G01X4848Y15354*
G02X4857Y15333I21J21*
G01Y15182*
G02X4827Y15152I30*
G03X4748Y15074J78*
G01Y14680*
G03X4827Y14601I79*
G01X5063*
G03X5142Y14680J79*
G01Y15074*
G03X5063Y15152I79*
G02X5034Y15182J30*
G01Y15382*
G03X5008Y15444I89*
G01X5002Y15450*
G02X4993Y15471I21J21*
X5007Y15496I30*
G03X5099Y15662I105J166*
X4902Y15859I197*
X4705Y15662J197*
G01Y17028*
X4772*
G02X4791Y17020J30*
G03X4924Y16969I133J146*
X5057Y17020J197*
G02X5077Y17028I20J22*
G01X5252*
G02X5281Y16998J30*
G01Y16969*
G03X5324Y16899I79*
G02X5340Y16872I13J27*
G01Y16837*
G03X5381Y16740I138*
G01X5448Y16672*
G02X5457Y16651I20J21*
X5432Y16622I29*
G03X5364Y16544I11J78*
G01Y15756*
G03X5443Y15678I79*
G01X5497*
G02X5527Y15648J30*
X5519Y15629I30*
G03X5469Y15497I147J132*
X5666Y15300I197*
X5863Y15497J197*
X5813Y15629I197*
G02X5805Y15648I22J19*
X5835Y15678I30*
G01X5837*
G03X5915Y15756J78*
G01Y15993*
G03X5837Y16071I78*
G01X5443*
G03X5364Y15993J78*
G01Y16308*
G03X5443Y16229I79*
G01X5837*
G03X5907Y16272J79*
G02X5933Y16288I26J14*
G01X6067*
G02X6073Y16287J30*
G03X6098Y16284I32J134*
G02X6123Y16268I1J30*
G03X6193Y16225I70J35*
G01X6587*
G03X6622Y16233J78*
G02X6636Y16236I14J26*
X6665Y16207J29*
G01Y16156*
G03X6671Y16115I138*
G02X6673Y16107I28J8*
X6661Y16083I30*
G01X6640Y16067*
G02X6622Y16061I18J24*
X6613Y16063J30*
G03X6587Y16067I26J75*
G01X6193*
G03X6114Y15988J79*
G01Y15752*
G03X6180Y15674I79*
G02X6205Y15645I4J29*
X6189Y15619I29*
G03X6085Y15445I93J174*
X6282Y15249I197*
X6479Y15445J196*
X6471Y15500I197*
G02X6470Y15509I28J9*
X6472Y15520I29*
G03X6479Y15553I82J33*
G01Y15644*
G02X6508Y15673I29*
G01X6587*
G03X6666Y15752J79*
G01Y15988*
G03X6665Y15995I79*
G02Y15997I30J2*
X6677Y16021I30*
G01X6697Y16037*
G02X6716Y16043I19J24*
X6731Y16039J30*
G03X6803Y16018I72J117*
G01X6844*
G02X6871Y16002J29*
G03X6941Y15959I70J36*
G01X7002*
G02X7032Y15930J29*
X7020Y15906I30*
G03X6941Y15748I118J158*
X7138Y15551I197*
X7335Y15748J197*
X7255Y15906I197*
G02X7243Y15930I18J24*
X7273Y15959I30*
G01X7335*
G03X7405Y16002J79*
G02X7431Y16018I26J13*
G01X8791*
G03X8889Y16059J138*
G01X8993Y16163*
G02X9014Y16172I21J21*
X9035Y16163J30*
G01X9139Y16059*
G03X9237Y16018I98J97*
G01X9552*
G03X9567Y16019J138*
G02X9571I4J29*
G01X9726*
G02X9745Y16012J29*
G03X9878Y15960I133J145*
X10075Y16157J197*
X9878Y16354I197*
X9745Y16303J197*
G02X9726Y16295I19J21*
G01X9553*
G03X9537Y16294J138*
G02X9534I3J29*
G01X9306*
G02X9285Y16303J29*
G01X9160Y16427*
G02X9152Y16448I21J21*
G01Y17587*
G02X9160Y17608I29*
G01X9372Y17820*
Y17323*
G03X9569Y17127I197*
X9737Y17221J196*
G02X9762Y17235I25J16*
G01X10526*
G02X10547Y17226J30*
G01X11208Y16566*
Y13002*
G03X11267Y12943I59*
G01X11660*
G03X11719Y13002J59*
G01Y13239*
G03X11660Y13298I59*
G01X11267*
G03X11208Y13239J59*
G01Y16566*
X11983Y15790*
G02X11991Y15774I21J21*
G03X12108Y15672I117J16*
G01X12135*
G02X12164Y15643J29*
X12161Y15629I29*
G03X12137Y15534I173J95*
X12143Y15487I197*
G02X12144Y15480I29J7*
X12114Y15450I30*
X12100Y15453J30*
G03X12010Y15475I90J174*
X11813Y15279J196*
X11916Y15105I197*
G01Y13003*
G03X11975Y12944I59*
G01X12369*
G03X12428Y13003J59*
G01Y13240*
G03X12369Y13299I59*
G01X11975*
G03X11916Y13240J59*
G01Y15105*
G03X12010Y15082I94J174*
X12159Y15150J197*
G02X12182Y15160I23J19*
G01X12779*
G02X12809Y15131J29*
X12808Y15126I30*
G03X12807Y15111I77J15*
G01Y14934*
G03X12822Y14887I78*
G02X12828Y14870I24J17*
X12827Y14865I30*
G03X12826Y14855I58J10*
G01Y14678*
G03X12862Y14624I59*
G02X12879Y14597I12J27*
X12856Y14568I29*
G03X12811Y14511I14J57*
G01Y13920*
G03X12870Y13861I59*
G01X13736*
G03X13769Y13871J59*
G02X13785Y13876I16J24*
X13815Y13847J29*
G01Y13064*
G03X13874Y13005I59*
G01X14622*
G03X14681Y13064J59*
G01Y15151*
G03X14622Y15210I59*
G01X13874*
G03X13815Y15151J59*
G01Y14584*
G02X13785Y14555I30*
X13769Y14560J29*
G03X13736Y14570I33J49*
G01X13556*
G02X13526Y14599J29*
X13542Y14626I30*
G03X13574Y14678I27J52*
G01Y14855*
G03Y14865I59*
G02X13573Y14870I29J5*
X13579Y14887I30*
G03X13594Y14934I64J47*
G01Y15111*
G03X13589Y15140I79*
G02X13587Y15151I27J11*
X13589Y15161I29*
G03X13594Y15190I74J29*
G01Y15367*
G03X13589Y15396I79*
G02X13587Y15406I27J10*
X13589Y15417I29*
G03X13594Y15446I74J29*
G01Y15623*
G03X13589Y15652I79*
G02X13587Y15662I27J10*
X13589Y15673I29*
G03X13594Y15702I74J29*
G01Y15879*
G03X13569Y15936I79*
G02X13560Y15958I21J22*
X13590Y15987I30*
G01X13736*
G03X13769Y15997J59*
G02X13785Y16002I16J24*
X13815Y15973J29*
G01Y15408*
G03X13874Y15349I59*
G01X14622*
G03X14681Y15408J59*
G01Y17495*
G03X14622Y17554I59*
G01X13874*
G03X13815Y17495J59*
G01Y16710*
G02X13785Y16681I30*
X13769Y16686J29*
G03X13736Y16696I33J49*
G01X12870*
G03X12811Y16637J59*
G01Y16046*
G03X12840Y15995I59*
G02X12855Y15969I14J26*
X12842Y15945I29*
G03X12819Y15922I43J66*
G02X12795Y15908I24J16*
G01X12128*
G02X12107Y15917J30*
G01X10638Y17386*
G03X10575Y17412I63J63*
G01X9762*
G02X9737Y17426J29*
G03X9569Y17520I168J103*
X9372Y17323J197*
G01Y17820*
X9735Y18183*
G02X9756Y18192I21J21*
G01X10736*
G02X10757Y18183J30*
G01X11529Y17411*
G02X11538Y17390I21J21*
X11537Y17383I30*
G03X11532Y17337I191J46*
X11728Y17140I196*
X11925Y17337J197*
X11728Y17533I197*
X11682Y17528J196*
G02X11675Y17527I7J29*
X11655Y17536J30*
G01X10848Y18343*
G03X10785Y18369I63J63*
G01X9805*
G02X9775Y18398J29*
G01Y20477*
G03X9735Y20575I138*
G01X8754Y21556*
G02X8745Y21575I20J21*
G03X8740Y21612I197J9*
G02X8739Y21619I28J7*
X8747Y21640I29*
G01X9009Y21902*
G03X9035Y21964I62J62*
G01Y22338*
G03X9009Y22401I88*
G01X8813Y22598*
G03X8750Y22624I63J63*
G01X8517*
G02X8492Y22638J29*
G03X8470Y22667I168J103*
G02X8462Y22687I21J20*
X8491Y22717I29*
G01X10856*
Y19789*
G03X11053Y19592I197*
X11221Y19686J197*
G02X11246Y19700I25J15*
G01X11263*
G03X11326Y19726J89*
G01X11372Y19772*
G02X11392Y19781I20J21*
G01X11795*
G02X11824Y19751J30*
G03X11903Y19672I79*
G01X12297*
G03X12375Y19751J79*
G01Y19987*
G03X12297Y20066I78*
G01X11903*
G03X11824Y19987J79*
G02X11795Y19958I29*
G01X11344*
G03X11281Y19932J89*
G01X11254Y19905*
G02X11233Y19897I21J21*
X11210Y19908J29*
G03X11053Y19986I157J119*
X10856Y19789J197*
G01Y22717*
X10948*
Y21871*
G03X11027Y21792I79*
G01X11617*
G03X11696Y21871J79*
G01Y22462*
G03X11617Y22541I79*
G01X11027*
G03X10948Y22462J79*
G01Y22717*
X11844*
Y20302*
G03X11903Y20243I59*
G01X12297*
G03X12356Y20302J59*
G01Y20539*
G03X12297Y20598I59*
G01X11903*
G03X11844Y20539J59*
G01Y22717*
X11948*
Y22166*
G03X12322Y21792I374*
X12658Y22002J374*
G01Y18575*
G03X12934Y18300I276*
X13209Y18575J275*
X12934Y18851I275*
X12658Y18575J276*
G01Y22002*
G03X12696Y22166I336J164*
X12322Y22541I374*
X11948Y22166J375*
G01Y22717*
X12948*
Y22166*
G03X13322Y21792I374*
X13696Y22166J374*
X13322Y22541I374*
X12948Y22166J375*
G01Y22717*
X13948*
Y22166*
G03X14322Y21792I374*
X14696Y22166J374*
X14322Y22541I374*
X13948Y22166J375*
G01Y22717*
X14813*
G02X14843Y22687J30*
G01Y9042*
G02X14813Y9012I30*
X14789Y9025J30*
G03X14692Y9124I326J221*
G02X14679Y9148I17J24*
G01Y10233*
G03X14616Y10386I216*
G01X14442Y10561*
G03X14289Y10624I153J154*
G01X14189*
G02X14159Y10654J30*
G01Y10703*
G03X14081Y10781I78*
G01X13490*
G03X13411Y10703J78*
G01Y10112*
G03X13490Y10033I79*
G01X14081*
G03X14159Y10112J79*
G01Y10159*
G02X14189Y10189I30*
X14210Y10180J30*
G01X14238Y10152*
G02X14246Y10131I21J21*
G01Y9148*
G02X14234Y9124I29*
G03X14069Y8804I229J320*
X14463Y8410I394*
X14789Y8582J394*
G02X14813Y8595I24J16*
X14843Y8566J29*
G01Y148*
G02X14813Y118I30*
G01X5411*
G02X5382Y148J30*
X5388Y165I29*
G03X5400Y201I48J36*
G01Y1253*
G03X5340Y1312I60*
G01X549*
G03X490Y1253J59*
G01Y201*
G03X502Y165I59*
G02X508Y148I24J17*
X478Y118I30*
G01X148*
G02X118Y148J30*
G01Y18156*
Y22687D02*
G02X148Y22717I30D01*
G01X1263*
Y22141*
G03X1610Y21733I414*
G01Y20487*
G03X1669Y20428I59*
G01X2063*
G03X2122Y20487J59*
G01Y20723*
G03X2063Y20782I59*
G01X1669*
G03X1610Y20723J59*
G01Y21733*
G03X1677Y21728I67J408*
X2090Y22141J413*
X1677Y22554I413*
X1263Y22141J413*
G01Y22717*
X2303*
Y22141*
G03X2677Y21767I374*
X3051Y22141J374*
X2677Y22515I374*
X2303Y22141J374*
G01Y22717*
X3303*
Y22141*
G03X3319Y22030I374*
G01Y19544*
G03X3378Y19485I59*
G01X3615*
G03X3674Y19544J59*
G01Y19938*
G03X3615Y19997I59*
G01X3378*
G03X3319Y19938J59*
G01Y22030*
G03X3677Y21767I358J111*
X4051Y22141J374*
X3677Y22515I374*
X3303Y22141J374*
G01Y22717*
X6619*
Y22138*
G03X6679Y22079I60*
G01X6915*
G03X6974Y22138J59*
G01Y22531*
G03X6915Y22590I59*
G01X6679*
G03X6619Y22531J59*
G01Y22717*
X8156*
G02X8185Y22687J30*
X8178Y22667I29*
G03X8156Y22638I146J132*
G02X8130Y22624I26J15*
G01X7877*
G03X7814Y22598J89*
G01X7648Y22432*
G02X7627Y22423I21J21*
G01X7574*
G02X7545Y22453J30*
G01Y22531*
G03X7466Y22610I79*
G01X7230*
G03X7151Y22531J79*
G01Y22138*
G03X7230Y22059I79*
G01X7466*
G03X7545Y22138J79*
G01Y22216*
G02X7574Y22246I29*
G01X7676*
G03X7739Y22272J88*
G01X7905Y22438*
G02X7926Y22446I21J21*
G01X8130*
G02X8156Y22432J29*
G03X8324Y22338I168J103*
X8346Y22340J197*
G02X8349I3J30*
X8379Y22310J30*
X8375Y22296I30*
G03X8350Y22199I171J97*
X8355Y22152I196*
G02X8356Y22145I29J7*
X8347Y22125I30*
G01X8138Y21915*
G02X8117Y21906I21J21*
G01X7207*
G03X7144Y21880J88*
G01X6430Y21166*
G02X6409Y21158I21J21*
X6380Y21187J29*
X6381Y21196I29*
G03X6391Y21257I187J61*
X6267Y21439I197*
G02X6249Y21467I11J28*
X6252Y21479I29*
G03X6271Y21563I178J84*
X6074Y21760I197*
X5877Y21563J197*
X5882Y21517I197*
G02X5883Y21510I28J7*
X5874Y21489I29*
G01X5406Y21021*
G02X5385Y21012I21J21*
X5367Y21019J30*
G03X5241Y21064I126J151*
X5074Y20971J196*
G02X5049Y20957I25J16*
X5044Y20958J30*
G03X5042I12J88*
G02X5016Y20987I3J29*
G01Y21008*
G03X4937Y21086I79*
G01X4780*
G03X4701Y21008J78*
G01Y20732*
G03X4752Y20659I79*
G02X4771Y20631I11J28*
X4752Y20603I30*
G03X4701Y20530I28J73*
G01Y20254*
G03X4750Y20181I79*
G02X4769Y20154I11J27*
G01Y20132*
G02X4755Y20107I30*
G03X4662Y19965I102J168*
G02X4633Y19940I29J4*
X4614Y19947J29*
G03X4586Y19967I130J148*
G02X4572Y19993I16J26*
G01Y20076*
G03X4558Y20125I88*
G02X4553Y20141I25J16*
G01Y20153*
G02X4572Y20181I30*
G03X4622Y20254I29J73*
G01Y20530*
G03X4572Y20603I79*
G02X4553Y20631I11J28*
X4572Y20659I30*
G03X4622Y20732I29J73*
G01Y21008*
G03X4543Y21086I79*
G01X4386*
G03X4307Y21008J78*
G01Y20732*
G03X4357Y20659I79*
G02X4376Y20631I10J28*
X4357Y20603I29*
G03X4307Y20530I29J73*
G01Y20254*
G03X4357Y20181I79*
G02X4376Y20153I10J28*
G01Y20095*
G03X4390Y20047I89*
G02X4395Y20031I24J16*
G01Y19993*
G02X4381Y19967I29*
G03X4301Y19874I103J168*
G02X4274Y19856I27J11*
X4245Y19885J29*
G01Y19938*
G03X4166Y20017I79*
G01X3930*
G03X3851Y19938J79*
G01Y19544*
G03X3930Y19466I79*
G01X4166*
G03X4245Y19544J78*
G01Y19623*
G02X4274Y19653I29*
G01X4342*
G02X4360Y19646J30*
G03X4484Y19603I124J153*
X4679Y19773J196*
G02X4708Y19798I29J4*
X4727Y19791J29*
G03X4857Y19742I130J148*
X5054Y19939J197*
X4960Y20107I197*
G02X4946Y20132I16J25*
G01Y20141*
G02Y20145I30*
G03X4947Y20154I88J11*
G02X4966Y20181I29J1*
G03X5016Y20254I29J73*
G01Y20274*
G02X5045Y20303I29*
G01X5253*
G02X5283Y20274J29*
X5282Y20265I30*
G03X5273Y20209I188J56*
X5367Y20041I197*
G02X5382Y20016I15J25*
G01Y19678*
G02X5373Y19657I30*
G01X5039Y19323*
G02X5018Y19315I21J21*
G01X3441*
G02X3420Y19323J29*
G01X2627Y20116*
G03X2564Y20142I63J62*
G01X2171*
G02X2142Y20172J30*
G03X2063Y20251I79*
G01X1669*
G03X1591Y20172J79*
G01Y20170*
G02X1566Y20141I30*
G03X1526Y20123I15J87*
G02X1508Y20117I18J23*
G01X1296*
G02X1267Y20146J29*
G01Y20225*
G03X1188Y20304I79*
G01X479*
G03X411Y20265J79*
G02X386Y20250I25J14*
X356Y20279J29*
G01Y21037*
G02X386Y21067I30*
X411Y21052J30*
G03X479Y21013I68J39*
G01X1188*
G03X1267Y21091J78*
G01Y21485*
G03X1188Y21564I79*
G01X1080*
G02X1050Y21593J29*
G03X997Y21729I216J6*
G02X990Y21748I22J19*
X1006Y21775I29*
G03X1051Y21846I34J71*
G01Y22436*
G03X972Y22515I79*
G01X381*
G03X303Y22436J79*
G01Y21846*
G03X381Y21767I78*
G01X431*
G02X460Y21738J30*
G03X505Y21611I217J6*
G02X512Y21593I23J18*
X482Y21564I30*
G01X479*
G03X401Y21485J79*
G01Y21454*
G02X375Y21425I30*
G03X293Y21386I16J137*
G01X169Y21261*
G02X148Y21252I21J21*
X118Y21282J30*
G01Y22687*
X356Y19777D02*
G02X386Y19807I30D01*
X411Y19792J30*
G03X479Y19753I68J39*
G01X1188*
G03X1267Y19831J78*
G01Y19910*
G02X1296Y19940I29*
G01X1404*
Y19150*
G03X1424Y19098I79*
G01Y18598*
G03X1483Y18539I59*
G01X1877*
G03X1936Y18598J59*
G01Y18835*
G03X1877Y18894I59*
G01X1483*
G03X1424Y18835J59*
G01Y19098*
G03X1483Y19071I59J52*
G01X1877*
G03X1955Y19150J79*
G02X1985Y19179I30*
G01X2138*
G03X2150Y19180J89*
G02X2155I5J29*
X2180Y19166J29*
G03X2347Y19073I167J104*
X2544Y19270J197*
X2347Y19467I197*
X2179Y19373J197*
G02X2154Y19359I25J15*
G01X2140*
G03X2122Y19357J89*
G02X2116Y19356I6J29*
G01X1985*
G02X1955Y19386J30*
G03X1877Y19465I78*
G01X1483*
G03X1404Y19386J79*
G01Y19940*
X1555*
G03X1562J88*
G02X1564I2J29*
X1593Y19917J29*
G03X1669Y19857I76J19*
G01X2063*
G03X2142Y19936J79*
G02X2171Y19965I29*
G01X2515*
G02X2536Y19957J29*
G01X3329Y19163*
G03X3392Y19137I63J63*
G01X4436*
Y17728*
G03X4633Y17531I197*
X4801Y17625J197*
G02X4826Y17639I25J15*
G01X5076*
G03X5139Y17665J89*
G01X5852Y18378*
Y16969*
G03X5911Y16910I59*
G01X6147*
G03X6206Y16969J59*
G01Y17362*
G03X6147Y17421I59*
G01X5911*
G03X5852Y17362J59*
G01Y18378*
X6778Y19305*
Y17797*
G03X6857Y17718I79*
G01X7251*
G03X7328Y17782J79*
G02X7357Y17806I29J6*
X7380Y17794J30*
G03X7426Y17751I157J120*
G02X7439Y17727I16J24*
X7422Y17700I29*
G03X7314Y17576I81J180*
G02X7285Y17555I29J8*
X7276Y17557J29*
G03X7251Y17561I25J75*
G01X6857*
G03X6778Y17482J79*
G01Y17246*
G03X6857Y17167I79*
G01X6882*
Y16589*
G03X6941Y16530I59*
G01X7335*
G03X7394Y16589J59*
G01Y16825*
G03X7335Y16884I59*
G01X6941*
G03X6882Y16825J59*
G01Y17167*
X7251*
G03X7330Y17246J79*
G02X7356Y17276I29*
G03X7409Y17301I10J88*
G01X7429Y17321*
G02X7450Y17330I21J21*
X7456Y17329J30*
G03X7503Y17323I47J191*
X7699Y17520J197*
X7613Y17683I196*
G02X7600Y17708I17J25*
X7618Y17734I30*
G03X7734Y17914I81J180*
X7537Y18111I197*
X7381Y18034J197*
G02X7357Y18023I24J18*
X7328Y18047J29*
G03X7251Y18112I77J14*
G01X6857*
G03X6778Y18033J79*
G01Y19305*
X7166Y19692*
G02X7186Y19700I20J21*
G01X7201*
Y18506*
G03X7398Y18310I197*
X7566Y18404J196*
G02X7591Y18418I25J16*
G01X7901*
G03X7904J88*
G01X7905*
G02X7934Y18394J30*
G03X8011Y18331I77J16*
G01X8405*
G03X8484Y18410J79*
G01Y18646*
G03X8405Y18725I79*
G01X8011*
G03X7933Y18646J79*
G01Y18645*
G02X7908Y18616I30*
G03X7872Y18600I15J88*
G02X7854Y18595I18J25*
G01X7591*
G02X7566Y18609J30*
G03X7398Y18703I168J103*
X7201Y18506J197*
G01Y19700*
X7576*
G02X7601Y19686J29*
G03X7769Y19592I168J103*
X7952Y19717J197*
G01Y18961*
G03X8011Y18902I59*
G01X8405*
G03X8464Y18961J59*
G01Y19198*
G03X8405Y19257I59*
G01X8011*
G03X7952Y19198J59*
G01Y19717*
G03X7966Y19789I183J72*
X7769Y19986I197*
X7601Y19892J197*
G02X7576Y19878I25J15*
G01X7138*
G03X7075Y19852J89*
G01X5048Y17825*
G02X5028Y17817I20J21*
G01X4826*
G02X4801Y17831J29*
G03X4633Y17925I168J103*
X4436Y17728J197*
G01Y19137*
X5067*
G03X5130Y19163J89*
G01X5533Y19566*
G03X5559Y19629I63J63*
G01Y20016*
G02X5573Y20041I29*
G03X5667Y20209I103J168*
X5660Y20261I197*
G02X5659Y20269I28J8*
X5688Y20298I29*
X5708Y20290J29*
G03X5842Y20238I134J145*
X6039Y20435J197*
X6034Y20481I197*
G02X6033Y20488I28J7*
X6042Y20509I29*
G01X6101Y20568*
G03X6123Y20604I63J62*
G02X6130Y20615I28J9*
G01X7235Y21721*
G02X7256Y21729I21J21*
G01X8166*
G03X8228Y21755J89*
G01X8472Y21999*
G02X8493Y22008I21J21*
X8500Y22007J30*
G03X8546Y22002I46J192*
X8743Y22199J197*
X8598Y22388I197*
G02X8576Y22417I8J29*
X8606Y22446I30*
G01X8701*
G02X8722Y22438J29*
G01X8849Y22310*
G02X8858Y22290I21J20*
G01Y22013*
G02X8849Y21992I30*
G01X8622Y21765*
G02X8601Y21757I21J21*
X8594J29*
G03X8548Y21763I46J191*
X8351Y21566J197*
X8387Y21454I197*
G02X8392Y21437I25J17*
X8362Y21407I30*
G01X8331*
G02X8301Y21437J30*
G03X8223Y21516I78*
G01X7829*
G03X7750Y21437J79*
G01Y21201*
G03X7770Y21149I79*
G01Y20650*
G03X7829Y20591I59*
G01X8223*
G03X8282Y20650J59*
G01Y20886*
G03X8223Y20945I59*
G01X7829*
G03X7770Y20886J59*
G01Y21149*
G03X7829Y21122I59J52*
G01X8223*
G03X8301Y21201J79*
G02X8331Y21230I30*
G01X8508*
G03X8570Y21256J89*
G01X8596Y21282*
G02X8617Y21290I21J21*
X8638Y21282J29*
G01X9491Y20429*
G02X9499Y20408I21J21*
G01Y20371*
G02X9470Y20342I29*
G01X7526*
G02X7506Y20350J29*
G01X7172Y20684*
G02X7163Y20705I21J21*
X7164Y20712I30*
G03X7169Y20758I192J46*
X6972Y20955I197*
X6776Y20758J197*
X6972Y20561I196*
X7019Y20567J197*
G02X7026I7J29*
X7046Y20559J29*
G01X7415Y20190*
G03X7477Y20164I62J63*
G01X9470*
G02X9499Y20135J29*
G01Y18349*
G02X9491Y18329I29*
G01X8916Y17754*
G03X8876Y17657I98J97*
G01Y16448*
G02X8867Y16427I29*
G01X8743Y16303*
G02X8722Y16294I21J20*
G01X7431*
G02X7405Y16310J29*
G03X7335Y16353I70J36*
G01X6966*
G02X6937Y16375J29*
G03X6901Y16440I134J32*
G01X6822Y16519*
G03X6725Y16559I97J98*
G01X6683*
G02X6657Y16575J30*
G03X6587Y16618I70J35*
G01X6193*
G03X6125Y16578J78*
G02X6099Y16564I26J15*
G01X5933*
G02X5907Y16580J29*
G03X5837Y16623I70J36*
G01X5807*
G02X5778Y16652J29*
G01Y16675*
G03X5737Y16773I138*
G01X5645Y16865*
G02X5636Y16886I21J21*
X5647Y16909I30*
G03X5675Y16969I51J60*
G01Y17362*
G03X5596Y17441I79*
G01X5360*
G03X5281Y17362J79*
G01Y17333*
G02X5252Y17303I29*
G01X5077*
G02X5057Y17311J30*
G03X4924Y17362I133J145*
X4791Y17311J196*
G02X4772Y17303I19J22*
G01X2900*
G02X2879Y17312J30*
G01X2878Y17314*
G03X2780Y17354I98J98*
G01X1394*
G02X1373Y17363J30*
G01X365Y18371*
G02X356Y18392I21J21*
G01Y19777*
G37*
G54D10*
X0Y0D02*
X14961D01*
Y22835*
X0*
Y0*
G54D11*
X920Y3568D03*
X12126Y1496D03*
X12934Y18575D03*
G54D12*
X1677Y22141D02*
X1363Y22454D01*
X1677Y22141D02*
X1990Y22454D01*
X1677Y22141D02*
X1363Y21828D01*
X1677Y22141D02*
X1990Y21828D01*
X12246Y8587D02*
X12044Y8384D01*
X12246Y9020D02*
X12044Y9223D01*
X12679Y8587D02*
X12882Y8384D01*
X12679Y9020D02*
X12882Y9223D01*
G54D13*
X834Y20028D02*
X1555D01*
X1581Y20054*
X1866*
X1122Y936D02*
Y1007D01*
X731*
Y949*
X746Y933*
X760Y916*
X775Y897*
X789Y878*
X803Y856*
X818Y834*
X832Y811*
X846Y786*
X860Y760*
X873Y735*
X884Y709*
X896Y683*
X907Y656*
X916Y630*
X925Y604*
X933Y577*
X943Y538*
X952Y497*
X958Y455*
X962Y411*
X1038*
X1037Y429*
X1036Y448*
X1033Y469*
X1030Y489*
X1027Y511*
X1022Y534*
X1016Y558*
X1010Y583*
X1003Y608*
X995Y633*
X987Y657*
X977Y682*
X968Y706*
X956Y730*
X945Y754*
X933Y777*
X920Y800*
X907Y823*
X894Y844*
X881Y864*
X868Y883*
X854Y901*
X841Y919*
X826Y936*
X1122*
X1317Y411D02*
X1392D01*
Y883*
X1406Y871*
X1422Y858*
X1441Y845*
X1462Y832*
X1483Y820*
X1503Y810*
X1522Y801*
X1540Y794*
Y865*
X1510Y881*
X1481Y898*
X1455Y916*
X1431Y936*
X1420Y947*
X1409Y957*
X1400Y967*
X1392Y978*
X1383Y988*
X1377Y998*
X1370Y1007*
X1365Y1017*
X1317*
Y411*
X1507Y16128D02*
X1389D01*
X1512Y18717D02*
X1394D01*
X1577Y8552D02*
X1458D01*
X1586Y7360D02*
X1468D01*
X1665Y8384D02*
Y8266D01*
Y8719D02*
Y8837D01*
X1674Y15577D02*
X2236D01*
X2239Y15579*
X2445*
X1674Y16040D02*
Y15921D01*
Y16217D02*
Y16335D01*
X1680Y18628D02*
Y18510D01*
Y18805D02*
Y18923D01*
Y19268D02*
X2138D01*
X2140Y19270*
X2347*
X1699Y20605D02*
X1581D01*
X1753Y7271D02*
Y7153D01*
Y7448D02*
Y7567D01*
X1754Y8552D02*
X1872D01*
X1841Y16128D02*
X1959D01*
X1847Y18717D02*
X1965D01*
X1866Y20516D02*
Y20398D01*
Y20694D02*
Y20812D01*
X1920Y7406D02*
X2039D01*
X1990Y708D02*
Y691D01*
Y673*
X1989Y656*
X1988Y640*
X1987Y625*
X1986Y611*
X1984Y597*
X1982Y584*
X1979Y572*
X1977Y561*
X1974Y551*
X1971Y541*
X1967Y532*
X1964Y524*
X1960Y517*
X1956Y510*
X1947Y499*
X1937Y489*
X1927Y480*
X1917Y474*
X1905Y469*
X1894Y464*
X1882Y462*
X1869Y461*
X1857Y462*
X1845Y464*
X1833Y469*
X1822Y474*
X1812Y481*
X1802Y489*
X1792Y499*
X1783Y510*
X1779Y517*
X1775Y525*
X1771Y533*
X1768Y542*
X1765Y551*
X1762Y562*
X1760Y573*
X1757Y585*
X1755Y597*
X1753Y611*
X1752Y626*
X1751Y640*
X1750Y656*
X1749Y673*
X1748Y691*
Y708*
Y727*
X1749Y744*
X1750Y761*
X1751Y777*
X1752Y792*
X1753Y806*
X1755Y820*
X1757Y833*
X1760Y845*
X1762Y856*
X1765Y866*
X1768Y876*
X1771Y885*
X1775Y893*
X1779Y900*
X1783Y907*
X1792Y918*
X1801Y928*
X1812Y936*
X1822Y943*
X1833Y949*
X1845Y953*
X1858Y955*
X1870Y956*
X1883Y955*
X1895Y953*
X1906Y950*
X1917Y945*
X1926Y939*
X1936Y931*
X1944Y923*
X1952Y913*
X1957Y905*
X1961Y897*
X1965Y888*
X1969Y879*
X1972Y869*
X1976Y858*
X1979Y846*
X1981Y834*
X1983Y820*
X1985Y807*
X1987Y792*
X1988Y777*
X1989Y761*
X1990Y744*
Y727*
Y708*
X2034Y20605D02*
X2152D01*
X2067Y709D02*
X2066Y735D01*
X2065Y760*
X2064Y783*
X2061Y805*
X2058Y826*
X2054Y846*
X2050Y864*
X2045Y881*
X2039Y897*
X2032Y912*
X2025Y926*
X2017Y939*
X2009Y951*
X1999Y962*
X1989Y972*
X1979Y982*
X1968Y990*
X1956Y997*
X1943Y1004*
X1930Y1008*
X1916Y1012*
X1901Y1015*
X1885Y1017*
X1869*
X1858*
X1846Y1016*
X1835Y1014*
X1824Y1012*
X1813Y1009*
X1803Y1006*
X1793Y1002*
X1784Y998*
X1766Y986*
X1750Y973*
X1736Y959*
X1723Y941*
X1712Y921*
X1702Y900*
X1693Y877*
X1686Y851*
X1683Y838*
X1680Y823*
X1677Y806*
X1676Y789*
X1674Y771*
X1673Y751*
X1672Y731*
Y709*
X1673Y683*
Y658*
X1675Y634*
X1677Y613*
X1681Y592*
X1685Y572*
X1689Y554*
X1694Y537*
X1700Y521*
X1706Y506*
X1713Y492*
X1721Y479*
X1730Y467*
X1739Y456*
X1749Y445*
X1760Y436*
X1771Y428*
X1783Y421*
X1796Y414*
X1809Y409*
X1823Y405*
X1838Y403*
X1853Y401*
X1869*
X1891Y402*
X1911Y405*
X1930Y409*
X1947Y416*
X1964Y425*
X1980Y435*
X1994Y448*
X2007Y463*
X2014Y473*
X2021Y483*
X2027Y494*
X2033Y506*
X2038Y519*
X2044Y533*
X2048Y547*
X2052Y562*
X2055Y578*
X2058Y594*
X2061Y611*
X2063Y630*
X2064Y648*
X2065Y668*
X2067Y688*
Y709*
X2146Y482D02*
Y411D01*
X2546*
Y424*
X2544Y437*
X2541Y450*
X2537Y462*
X2528Y483*
X2517Y503*
X2504Y523*
X2488Y542*
X2479Y552*
X2469Y563*
X2459Y574*
X2447Y585*
X2435Y597*
X2421Y608*
X2406Y621*
X2391Y634*
X2367Y653*
X2346Y672*
X2326Y690*
X2308Y706*
X2293Y722*
X2279Y737*
X2267Y750*
X2257Y762*
X2249Y774*
X2242Y785*
X2236Y797*
X2231Y808*
X2227Y819*
X2225Y830*
X2223Y841*
Y851*
Y862*
X2224Y872*
X2227Y882*
X2230Y892*
X2235Y901*
X2240Y910*
X2247Y918*
X2254Y926*
X2263Y933*
X2271Y939*
X2280Y944*
X2290Y948*
X2301Y952*
X2312Y954*
X2324Y955*
X2337Y956*
X2350Y955*
X2362Y954*
X2374Y951*
X2385Y947*
X2396Y943*
X2405Y937*
X2414Y931*
X2423Y924*
X2430Y915*
X2437Y906*
X2442Y896*
X2447Y885*
X2450Y874*
X2453Y861*
X2455Y848*
Y835*
X2531Y842*
X2529Y863*
X2525Y882*
X2520Y901*
X2513Y917*
X2505Y933*
X2495Y947*
X2485Y960*
X2472Y972*
X2459Y983*
X2445Y992*
X2429Y999*
X2413Y1006*
X2395Y1011*
X2376Y1014*
X2356Y1017*
X2335*
X2313*
X2293Y1014*
X2275Y1010*
X2257Y1005*
X2240Y998*
X2225Y990*
X2210Y980*
X2197Y969*
X2185Y956*
X2175Y943*
X2166Y930*
X2159Y915*
X2153Y900*
X2149Y884*
X2147Y867*
X2146Y849*
X2148Y831*
X2150Y813*
X2155Y796*
X2161Y778*
X2165Y769*
X2170Y760*
X2175Y751*
X2181Y742*
X2188Y733*
X2195Y724*
X2202Y714*
X2211Y704*
X2220Y694*
X2231Y683*
X2243Y671*
X2257Y659*
X2272Y644*
X2288Y630*
X2306Y614*
X2325Y598*
X2341Y585*
X2355Y572*
X2368Y561*
X2380Y551*
X2390Y542*
X2399Y535*
X2406Y528*
X2411Y522*
X2420Y512*
X2428Y502*
X2436Y492*
X2442Y482*
X2146*
X2907Y7866D02*
X2789D01*
X2912Y12046D02*
Y11819D01*
X2927Y11804*
Y11497*
X2918Y3916D02*
Y3543D01*
X3063Y13978D02*
X6153D01*
X3075Y7777D02*
Y7659D01*
Y7954D02*
Y8072D01*
X3242Y7866D02*
X3360D01*
X3301Y411D02*
Y1015D01*
X2865*
Y943*
X3222*
Y759*
X2888*
Y688*
X3222*
Y482*
X2851*
Y411*
X3301*
X3393Y13674D02*
X5691D01*
X3408Y19741D02*
X3290D01*
X3435Y14299D02*
X10544D01*
X10793Y14050*
Y12789*
X11013Y12569*
X11463*
X3497Y19574D02*
Y19456D01*
Y19909D02*
Y20027D01*
X3585Y19741D02*
X3703D01*
X3836Y11497D02*
X3478D01*
X3893Y605D02*
X3817Y611D01*
X3813Y590*
X3808Y570*
X3801Y552*
X3792Y537*
X3787Y530*
X3781Y523*
X3775Y517*
X3767Y510*
X3759Y505*
X3751Y500*
X3741Y494*
X3731Y490*
X3710Y482*
X3688Y477*
X3664Y473*
X3639Y472*
X3617Y473*
X3596Y476*
X3577Y480*
X3558Y486*
X3542Y493*
X3528Y502*
X3516Y512*
X3506Y523*
X3499Y535*
X3493Y548*
X3490Y561*
X3489Y575*
X3490Y588*
X3493Y601*
X3499Y613*
X3506Y624*
X3511Y630*
X3516Y634*
X3522Y639*
X3528Y644*
X3535Y648*
X3543Y652*
X3551Y656*
X3561Y660*
X3568Y663*
X3577Y666*
X3587Y669*
X3600Y672*
X3614Y676*
X3630Y680*
X3648Y685*
X3668Y689*
X3688Y695*
X3707Y699*
X3724Y704*
X3739Y709*
X3753Y714*
X3765Y718*
X3776Y723*
X3785Y727*
X3795Y733*
X3805Y740*
X3814Y746*
X3822Y753*
X3830Y760*
X3837Y767*
X3844Y776*
X3849Y784*
X3854Y792*
X3858Y801*
X3862Y810*
X3865Y819*
X3867Y829*
X3869Y839*
X3870Y849*
Y859*
Y870*
X3868Y881*
X3867Y893*
X3864Y903*
X3860Y914*
X3855Y924*
X3850Y934*
X3844Y944*
X3838Y954*
X3830Y963*
X3822Y972*
X3812Y979*
X3802Y986*
X3792Y994*
X3780Y999*
X3769Y1005*
X3756Y1009*
X3743Y1014*
X3730Y1017*
X3716Y1020*
X3702Y1022*
X3688Y1024*
X3673Y1025*
X3658*
X3641*
X3625Y1024*
X3610Y1022*
X3594Y1020*
X3580Y1017*
X3566Y1013*
X3552Y1009*
X3539Y1004*
X3527Y998*
X3515Y992*
X3504Y985*
X3494Y977*
X3485Y969*
X3476Y960*
X3468Y950*
X3460Y940*
X3454Y929*
X3449Y918*
X3443Y907*
X3439Y895*
X3436Y883*
X3433Y871*
X3432Y858*
X3431Y845*
X3508Y839*
X3509Y853*
X3512Y866*
X3516Y878*
X3521Y889*
X3527Y900*
X3534Y909*
X3541Y918*
X3550Y926*
X3559Y933*
X3570Y939*
X3581Y943*
X3594Y947*
X3607Y951*
X3622Y953*
X3638Y955*
X3655*
X3672*
X3688Y953*
X3704Y952*
X3717Y949*
X3730Y944*
X3741Y940*
X3751Y934*
X3760Y929*
X3768Y921*
X3775Y914*
X3780Y907*
X3785Y899*
X3789Y891*
X3792Y882*
X3793Y874*
Y864*
Y856*
X3792Y849*
X3790Y842*
X3788Y835*
X3785Y828*
X3780Y822*
X3776Y816*
X3770Y810*
X3763Y806*
X3754Y800*
X3742Y794*
X3728Y789*
X3712Y784*
X3694Y779*
X3673Y773*
X3649Y767*
X3626Y762*
X3604Y757*
X3585Y752*
X3567Y747*
X3552Y742*
X3538Y738*
X3526Y733*
X3516Y729*
X3503Y723*
X3491Y716*
X3480Y709*
X3470Y701*
X3460Y694*
X3452Y685*
X3444Y676*
X3438Y668*
X3432Y658*
X3427Y648*
X3423Y638*
X3419Y627*
X3416Y616*
X3414Y605*
X3413Y594*
Y581*
Y569*
X3414Y558*
X3417Y546*
X3420Y535*
X3423Y523*
X3428Y512*
X3434Y502*
X3440Y490*
X3447Y480*
X3456Y470*
X3464Y461*
X3474Y453*
X3484Y445*
X3495Y437*
X3507Y431*
X3519Y424*
X3532Y419*
X3546Y414*
X3560Y410*
X3574Y406*
X3589Y404*
X3604Y402*
X3620Y401*
X3636*
X3656*
X3675Y402*
X3693Y404*
X3711Y406*
X3727Y410*
X3743Y414*
X3759Y419*
X3773Y424*
X3786Y431*
X3799Y438*
X3811Y445*
X3822Y454*
X3832Y464*
X3842Y474*
X3851Y484*
X3860Y496*
X3867Y509*
X3873Y521*
X3879Y534*
X3884Y548*
X3887Y561*
X3890Y575*
X3892Y590*
X3893Y605*
X4166Y4463D02*
X3287D01*
X3282Y4467*
X2918*
X4305Y14877D02*
X4187D01*
X4394Y14709D02*
Y14591D01*
Y15044D02*
Y15162D01*
X4464Y704D02*
X4463Y677D01*
X4461Y652*
X4456Y629*
X4450Y606*
X4441Y585*
X4431Y566*
X4419Y548*
X4406Y532*
X4390Y517*
X4375Y505*
X4357Y493*
X4340Y484*
X4321Y478*
X4301Y473*
X4280Y470*
X4258Y469*
X4236Y470*
X4215Y473*
X4195Y478*
X4176Y485*
X4158Y494*
X4141Y505*
X4125Y518*
X4110Y532*
X4096Y549*
X4085Y567*
X4075Y587*
X4066Y609*
X4060Y632*
X4055Y657*
X4053Y684*
X4051Y712*
X4052Y730*
X4053Y748*
X4055Y765*
X4058Y781*
X4062Y797*
X4066Y812*
X4070Y827*
X4076Y841*
X4083Y854*
X4090Y867*
X4098Y878*
X4107Y890*
X4116Y900*
X4127Y909*
X4138Y918*
X4150Y926*
X4161Y933*
X4174Y939*
X4187Y944*
X4200Y949*
X4214Y952*
X4228Y955*
X4242Y956*
X4257*
X4278Y955*
X4298Y953*
X4317Y948*
X4336Y942*
X4354Y933*
X4371Y923*
X4388Y911*
X4403Y898*
X4411Y890*
X4418Y882*
X4424Y874*
X4430Y864*
X4435Y854*
X4441Y844*
X4445Y832*
X4449Y820*
X4452Y808*
X4456Y794*
X4458Y781*
X4461Y767*
X4462Y752*
X4463Y737*
X4464Y720*
Y704*
X4465Y20392D02*
Y20870D01*
X4483Y14877D02*
X4601D01*
X4484Y19799D02*
Y19840D01*
Y20076*
X4465Y20095*
Y20392*
X4484Y19840D02*
X4384Y19741D01*
X4048*
X4547Y705D02*
Y724D01*
X4546Y741*
X4544Y759*
X4542Y776*
X4539Y793*
X4536Y809*
X4532Y824*
X4527Y839*
X4522Y854*
X4516Y867*
X4509Y881*
X4501Y894*
X4494Y906*
X4485Y918*
X4476Y929*
X4466Y940*
X4456Y950*
X4445Y960*
X4434Y969*
X4423Y978*
X4411Y985*
X4399Y992*
X4386Y998*
X4373Y1004*
X4360Y1009*
X4347Y1014*
X4333Y1017*
X4318Y1020*
X4304Y1022*
X4289Y1024*
X4274Y1025*
X4258*
X4237*
X4217Y1023*
X4197Y1019*
X4178Y1015*
X4160Y1009*
X4141Y1003*
X4124Y995*
X4106Y985*
X4090Y975*
X4075Y963*
X4061Y951*
X4047Y937*
X4035Y923*
X4024Y908*
X4014Y891*
X4004Y874*
X3996Y856*
X3989Y837*
X3982Y818*
X3978Y797*
X3974Y777*
X3971Y756*
X3969Y734*
Y712*
Y689*
X3971Y667*
X3974Y646*
X3978Y625*
X3984Y605*
X3989Y585*
X3997Y566*
X4006Y548*
X4015Y530*
X4027Y513*
X4038Y498*
X4051Y484*
X4064Y471*
X4079Y458*
X4095Y448*
X4111Y438*
X4128Y429*
X4146Y421*
X4164Y415*
X4182Y410*
X4200Y406*
X4219Y403*
X4238Y401*
X4258*
X4279*
X4300Y403*
X4320Y406*
X4338Y411*
X4357Y417*
X4376Y424*
X4393Y432*
X4411Y442*
X4427Y453*
X4442Y464*
X4457Y477*
X4470Y490*
X4482Y505*
X4493Y520*
X4503Y537*
X4512Y554*
X4520Y572*
X4527Y590*
X4533Y608*
X4538Y627*
X4542Y646*
X4545Y666*
X4546Y685*
X4547Y705*
X4633Y17728D02*
X5076D01*
X7138Y19789*
X7769*
X4718Y9391D02*
Y8267D01*
X4974Y8010*
X5102*
X5281Y7831*
Y7546*
X4730Y7078D02*
Y7546D01*
Y7078D02*
X6549D01*
X6553Y7075*
X6760*
X4730Y2558D02*
X4752Y2579D01*
X5153*
X4858Y20392D02*
Y20156D01*
X4857Y20155*
Y19939*
X4858Y20392D02*
X5329D01*
X6194Y21257*
X4902Y15662D02*
Y15425D01*
X4945Y15382*
Y14877*
X4964Y10031D02*
X4872Y9939D01*
X4964Y10326D02*
X4872Y10418D01*
X5051Y748D02*
X4879D01*
X4866*
X4853*
X4842Y750*
X4830Y751*
X4820Y752*
X4810Y754*
X4801Y757*
X4794Y759*
X4779Y766*
X4767Y774*
X4755Y784*
X4747Y796*
X4739Y808*
X4735Y822*
X4732Y835*
X4731Y850*
Y860*
X4732Y870*
X4735Y880*
X4738Y889*
X4743Y897*
X4748Y906*
X4754Y913*
X4762Y920*
X4770Y927*
X4780Y933*
X4790Y937*
X4802Y941*
X4814Y944*
X4829Y946*
X4844Y947*
X4860Y948*
X5051*
Y748*
X5131Y411D02*
Y1015D01*
X4863*
X4843*
X4825Y1014*
X4808Y1012*
X4792Y1011*
X4777Y1008*
X4764Y1005*
X4751Y1002*
X4740Y998*
X4730Y994*
X4721Y989*
X4711Y983*
X4702Y976*
X4695Y968*
X4687Y960*
X4680Y951*
X4673Y941*
X4667Y930*
X4662Y920*
X4658Y908*
X4654Y897*
X4651Y886*
X4650Y874*
X4649Y862*
X4648Y850*
X4649Y834*
X4650Y819*
X4654Y805*
X4659Y790*
X4664Y777*
X4672Y764*
X4680Y753*
X4690Y741*
X4700Y731*
X4713Y721*
X4727Y712*
X4742Y705*
X4760Y699*
X4778Y693*
X4797Y689*
X4818Y685*
X4803Y678*
X4790Y670*
X4779Y663*
X4770Y655*
X4753Y638*
X4736Y619*
X4719Y598*
X4704Y575*
X4599Y411*
X4699*
X4779Y536*
X4788Y549*
X4796Y562*
X4804Y573*
X4811Y584*
X4818Y594*
X4825Y603*
X4831Y611*
X4837Y619*
X4848Y633*
X4858Y644*
X4868Y653*
X4878Y660*
X4887Y665*
X4895Y669*
X4905Y673*
X4914Y676*
X4922Y677*
X4932Y678*
X4944Y679*
X4959*
X5051*
Y411*
X5131*
X5153Y3696D02*
Y3237D01*
X4730Y2814*
Y2558*
X5220Y10031D02*
X5312Y9939D01*
X5220Y10326D02*
X5312Y10418D01*
X5241Y20868D02*
X5034D01*
X5032Y20870*
X4858*
X5241Y20868D02*
X5378D01*
X6074Y21563*
X5470Y20209D02*
Y19629D01*
X5067Y19226*
X3392*
X2564Y20054*
X1866*
X5640Y15875D02*
Y15523D01*
X5666Y15497*
X5708Y3028D02*
Y3321D01*
X5704Y3325*
Y3696*
X5708Y3028D02*
X5704Y3024D01*
Y2579*
X5761Y10836D02*
Y10184D01*
X5842Y20435D02*
X6038Y20630D01*
Y20649*
X7207Y21818*
X8166*
X8546Y22199*
X5933Y11823D02*
X5908Y11848D01*
X5941Y17166D02*
X5822D01*
X6029Y16998D02*
Y16880D01*
Y17333D02*
Y17451D01*
X6080Y1523D02*
X6242Y1686D01*
Y1976*
X6118Y17166D02*
X6236D01*
X6141Y7570D02*
X5934D01*
X5910Y7546*
X5281*
X6282Y15445D02*
X6390Y15553D01*
Y15870*
X6364Y2579D02*
X5704D01*
X6381Y10184D02*
X6263D01*
X6509Y10036D02*
Y9918D01*
Y10331D02*
Y10449D01*
X6636Y1976D02*
Y1694D01*
X6823Y1506*
X6637Y10184D02*
X6755D01*
X6708Y22334D02*
X6590D01*
X6797Y22167D02*
Y22049D01*
Y22502D02*
Y22620D01*
X6827Y2579D02*
X6709D01*
X6884Y13263D02*
Y13560D01*
X6872Y13573*
Y13811*
X6885Y22334D02*
X7003D01*
X6915Y2412D02*
Y2294D01*
Y2747D02*
Y2865D01*
X6970Y16707D02*
X6852D01*
X7004Y2579D02*
X7122D01*
X7138Y15748D02*
Y16156D01*
Y16619D02*
Y16501D01*
Y16796D02*
Y16914D01*
X7168Y9966D02*
X6907Y9704D01*
Y8705*
X7281Y7917D02*
Y7521D01*
X7311Y7491*
Y7075*
X7305Y16707D02*
X7423D01*
X7311Y7075D02*
Y6781D01*
X7073Y6543*
X7439Y10963D02*
X6587D01*
X6118Y10495*
Y9885*
X6035Y9801*
X4455*
X4344Y9913*
Y10179*
X7503Y17520D02*
X7346Y17364D01*
X7054*
X7504Y13115D02*
X7386Y13084D01*
X7504Y13410D02*
X7412Y13503D01*
X7527Y8705D02*
X7409D01*
X7537Y17914D02*
X7536Y17915D01*
X7054*
X7655Y8557D02*
Y8439D01*
Y8852D02*
Y8970D01*
X7760Y13115D02*
X7878Y13084D01*
X7760Y13410D02*
X7852Y13503D01*
X7783Y8705D02*
X7901D01*
X7856Y6334D02*
X8249D01*
X8274Y6360*
X8481*
X7856Y6334D02*
X6728Y5207D01*
X4241*
X2776Y6672*
X1458*
X1294Y6836*
Y7737*
X1468Y7911*
X1753*
X7858Y20768D02*
X7740D01*
X8026Y20679D02*
Y20561D01*
Y20856D02*
Y20974D01*
Y21319D02*
X8508D01*
X8548Y21359*
Y21566*
X8041Y19079D02*
X7923D01*
X8193Y20768D02*
X8311D01*
X8208Y18528D02*
X7923D01*
X7901Y18506*
X7398*
X8208Y18991D02*
Y18873D01*
Y19168D02*
Y19286D01*
X8324Y22535D02*
X8750D01*
X8947Y22338*
Y21964*
X8548Y21566*
X8324Y22535D02*
X7877D01*
X7676Y22334*
X7348*
X8376Y19079D02*
X8494D01*
X8392Y5651D02*
X8274D01*
X8477Y7078D02*
Y6721D01*
X8481Y6717*
Y6360*
Y5484D02*
Y5366D01*
Y5819D02*
Y5937D01*
X8569Y5651D02*
X8687D01*
X9032D02*
Y6360D01*
X9570*
X9677Y6467*
X9884*
X9543Y13267D02*
X9297D01*
X8618Y13945*
X7220*
X9569Y17323D02*
X10575D01*
X12108Y15790*
X9618Y7075D02*
X9411D01*
X9409Y7078*
X9028*
X9637Y18280D02*
X10785D01*
X11728Y17337*
X9637Y20253D02*
X7477D01*
X6972Y20758*
X9884Y6467D02*
X10169Y6752D01*
Y7075*
X10163Y13267D02*
X10045D01*
X10291Y13119D02*
Y13001D01*
Y13414D02*
Y13532D01*
X10419Y13267D02*
X10537D01*
X10747Y8396D02*
X10474D01*
X10357Y8279*
X10747Y9112D02*
Y8396D01*
X11209D02*
X11091D01*
X11209Y9112D02*
X11091D01*
X11296Y13120D02*
X11178D01*
X11298Y8228D02*
Y8110D01*
Y8563D02*
Y8681D01*
Y8945D02*
Y8827D01*
Y9279D02*
Y9397D01*
X11387Y8396D02*
X11505D01*
X11387Y9112D02*
X11505D01*
X11463Y12569D02*
Y12280D01*
X11466Y12277*
Y11988*
X11463Y13032D02*
Y12914D01*
Y13209D02*
Y13327D01*
X11466Y11437D02*
X12375D01*
X12404Y11407*
X11631Y13120D02*
X11749D01*
X11933Y20420D02*
X11814D01*
X12005Y13122D02*
X11887D01*
X12081Y6749D02*
Y7353D01*
X11961*
X11818Y6926*
X11813Y6911*
X11809Y6897*
X11805Y6885*
X11801Y6873*
X11798Y6863*
X11794Y6853*
X11792Y6844*
X11789Y6836*
X11786Y6845*
X11783Y6854*
X11780Y6865*
X11776Y6877*
X11772Y6889*
X11767Y6903*
X11762Y6918*
X11757Y6933*
X11612Y7353*
X11505*
Y6749*
X11581*
Y7255*
X11757Y6749*
X11830*
X12004Y7264*
Y6749*
X12081*
X12100Y19869D02*
X11344D01*
X11263Y19789*
X11053*
X12100Y20332D02*
Y20214D01*
Y20509D02*
Y20627D01*
X12172Y12570D02*
X11887D01*
X11886Y12569*
X11463*
X12172Y13033D02*
Y12915D01*
Y13210D02*
Y13328D01*
X12267Y20420D02*
X12385D01*
X12339Y13122D02*
X12458D01*
X12607Y7086D02*
X12435D01*
X12422*
X12409Y7087*
X12398Y7088*
X12386Y7089*
X12376Y7091*
X12366Y7093*
X12357Y7095*
X12350Y7098*
X12335Y7104*
X12323Y7112*
X12311Y7122*
X12303Y7134*
X12295Y7147*
X12291Y7160*
X12288Y7174*
X12287Y7189*
Y7199*
X12288Y7209*
X12291Y7218*
X12294Y7228*
X12299Y7236*
X12304Y7244*
X12310Y7252*
X12318Y7259*
X12326Y7265*
X12336Y7271*
X12346Y7276*
X12358Y7280*
X12370Y7282*
X12385Y7285*
X12400Y7286*
X12416Y7287*
X12607*
Y7086*
X12687Y6749D02*
Y7353D01*
X12419*
X12399*
X12381Y7352*
X12364Y7351*
X12348Y7349*
X12333Y7347*
X12320Y7344*
X12307Y7341*
X12296Y7337*
X12286Y7333*
X12277Y7327*
X12267Y7321*
X12258Y7314*
X12251Y7307*
X12243Y7298*
X12236Y7290*
X12229Y7280*
X12223Y7269*
X12218Y7258*
X12214Y7247*
X12210Y7236*
X12207Y7225*
X12206Y7213*
X12205Y7200*
X12204Y7189*
X12205Y7173*
X12206Y7157*
X12210Y7143*
X12215Y7129*
X12220Y7116*
X12228Y7103*
X12236Y7091*
X12246Y7080*
X12256Y7069*
X12269Y7060*
X12283Y7051*
X12298Y7044*
X12316Y7037*
X12334Y7031*
X12353Y7027*
X12374Y7024*
X12359Y7016*
X12346Y7008*
X12335Y7001*
X12326Y6994*
X12309Y6977*
X12292Y6958*
X12275Y6936*
X12260Y6913*
X12155Y6749*
X12255*
X12335Y6875*
X12344Y6888*
X12352Y6900*
X12360Y6912*
X12367Y6923*
X12374Y6933*
X12381Y6942*
X12387Y6950*
X12393Y6958*
X12404Y6971*
X12414Y6982*
X12424Y6991*
X12434Y6998*
X12443Y7004*
X12451Y7008*
X12461Y7011*
X12470Y7014*
X12478Y7016*
X12488Y7017*
X12500*
X12515*
X12607*
Y6749*
X12687*
X12899Y13950D02*
X12807Y13858D01*
X12899Y14481D02*
X12807Y14573D01*
X12899Y16076D02*
X12807Y15984D01*
X12899Y16607D02*
X12807Y16699D01*
X12915Y14767D02*
X12797D01*
X13144Y6997D02*
X12937D01*
X13001Y7164*
X13008Y7183*
X13015Y7201*
X13021Y7218*
X13026Y7234*
X13031Y7249*
X13036Y7264*
X13040Y7277*
X13044Y7290*
X13051Y7261*
X13058Y7232*
X13067Y7203*
X13077Y7174*
X13144Y6997*
X13317Y6749D02*
X13085Y7353D01*
X12998*
X12752Y6749*
X12843*
X12913Y6932*
X13166*
X13232Y6749*
X13317*
X13486Y14767D02*
X13604D01*
X13706Y13950D02*
X13751Y13833D01*
X13706Y14481D02*
X13751Y14598D01*
X13706Y16076D02*
X13751Y15959D01*
X13706Y16607D02*
X13751Y16724D01*
X13790Y6749D02*
X13924Y7187D01*
X13847*
X13777Y6934*
X13751Y6840*
Y6841*
Y6843*
X13750Y6845*
X13749Y6848*
X13748Y6852*
Y6856*
X13746Y6861*
X13745Y6866*
X13744Y6872*
X13742Y6879*
X13740Y6886*
X13738Y6894*
X13736Y6902*
X13733Y6911*
X13731Y6920*
X13728Y6931*
X13657Y7187*
X13582*
X13517Y6933*
X13495Y6849*
X13470Y6934*
X13395Y7187*
X13323*
X13460Y6749*
X13536*
X13606Y7011*
X13624Y7086*
X13713Y6749*
X13790*
X13903Y13470D02*
X13785D01*
X13903Y17088D02*
X13785D01*
X14248Y13093D02*
Y12975D01*
Y15121D02*
Y15239D01*
Y15438D02*
Y15320D01*
Y16452D02*
Y17204D01*
Y17466D02*
Y17584D01*
X14450Y6944D02*
X14374Y6950D01*
X14371Y6928*
X14365Y6909*
X14358Y6891*
X14349Y6876*
X14344Y6869*
X14338Y6861*
X14332Y6856*
X14325Y6849*
X14316Y6844*
X14308Y6838*
X14299Y6833*
X14289Y6828*
X14267Y6821*
X14245Y6815*
X14221Y6812*
X14196Y6811*
X14174*
X14153Y6814*
X14134Y6818*
X14116Y6824*
X14099Y6832*
X14085Y6840*
X14073Y6850*
X14064Y6861*
X14056Y6874*
X14051Y6886*
X14048Y6900*
X14046Y6913*
X14048Y6927*
X14051Y6940*
X14056Y6952*
X14063Y6963*
X14068Y6968*
X14073Y6973*
X14079Y6978*
X14085Y6982*
X14093Y6987*
X14100Y6991*
X14108Y6995*
X14118Y6998*
X14125Y7001*
X14134Y7004*
X14144Y7007*
X14157Y7011*
X14171Y7014*
X14188Y7019*
X14205Y7023*
X14225Y7028*
X14245Y7033*
X14264Y7038*
X14281Y7043*
X14296Y7047*
X14310Y7052*
X14322Y7057*
X14333Y7062*
X14342Y7066*
X14352Y7072*
X14362Y7078*
X14371Y7085*
X14380Y7091*
X14387Y7098*
X14394Y7106*
X14401Y7114*
X14406Y7122*
X14411Y7131*
X14416Y7140*
X14419Y7148*
X14422Y7158*
X14424Y7167*
X14426Y7177*
X14427Y7187*
Y7197*
Y7209*
X14426Y7220*
X14424Y7231*
X14421Y7242*
X14417Y7252*
X14413Y7262*
X14407Y7273*
X14401Y7283*
X14395Y7293*
X14387Y7301*
X14379Y7310*
X14369Y7318*
X14359Y7325*
X14349Y7332*
X14338Y7338*
X14326Y7343*
X14313Y7348*
X14300Y7352*
X14287Y7356*
X14273Y7359*
X14259Y7361*
X14245Y7363*
X14230*
X14215Y7364*
X14198Y7363*
X14182*
X14167Y7361*
X14152Y7359*
X14137Y7356*
X14123Y7352*
X14110Y7347*
X14097Y7342*
X14084Y7336*
X14072Y7330*
X14061Y7323*
X14051Y7316*
X14042Y7307*
X14033Y7298*
X14025Y7289*
X14018Y7278*
X14011Y7268*
X14006Y7256*
X14000Y7245*
X13996Y7233*
X13993Y7222*
X13990Y7209*
X13989Y7196*
X13988Y7183*
X14065Y7177*
X14067Y7192*
X14069Y7205*
X14074Y7216*
X14078Y7228*
X14084Y7238*
X14091Y7248*
X14098Y7256*
X14107Y7264*
X14116Y7271*
X14127Y7277*
X14138Y7282*
X14151Y7286*
X14165Y7290*
X14179Y7292*
X14195Y7293*
X14212Y7294*
X14230Y7293*
X14245Y7292*
X14261Y7290*
X14274Y7287*
X14287Y7283*
X14299Y7279*
X14309Y7273*
X14318Y7267*
X14325Y7260*
X14332Y7253*
X14338Y7245*
X14342Y7238*
X14346Y7229*
X14349Y7221*
X14350Y7212*
X14351Y7203*
X14350Y7195*
X14349Y7187*
X14347Y7180*
X14345Y7173*
X14342Y7167*
X14338Y7160*
X14333Y7155*
X14327Y7149*
X14320Y7144*
X14311Y7139*
X14299Y7133*
X14286Y7128*
X14269Y7122*
X14251Y7117*
X14230Y7112*
X14206Y7106*
X14183Y7101*
X14162Y7095*
X14142Y7091*
X14124Y7085*
X14109Y7081*
X14095Y7076*
X14083Y7072*
X14073Y7068*
X14060Y7062*
X14048Y7055*
X14037Y7047*
X14027Y7040*
X14018Y7032*
X14009Y7024*
X14002Y7015*
X13995Y7006*
X13989Y6997*
X13984Y6987*
X13980Y6977*
X13976Y6966*
X13973Y6955*
X13971Y6944*
X13970Y6932*
Y6920*
Y6908*
X13971Y6896*
X13974Y6884*
X13977Y6873*
X13980Y6862*
X13985Y6851*
X13991Y6840*
X13997Y6829*
X14005Y6819*
X14013Y6809*
X14021Y6800*
X14031Y6791*
X14041Y6783*
X14052Y6776*
X14064Y6769*
X14077Y6763*
X14090Y6757*
X14103Y6752*
X14117Y6749*
X14131Y6745*
X14146Y6743*
X14161Y6740*
X14177*
X14193Y6739*
X14213Y6740*
X14232*
X14250Y6743*
X14268Y6745*
X14284Y6749*
X14300Y6753*
X14316Y6757*
X14330Y6763*
X14344Y6769*
X14356Y6776*
X14368Y6784*
X14380Y6793*
X14390Y6802*
X14400Y6812*
X14408Y6823*
X14417Y6835*
X14424Y6847*
X14430Y6860*
X14436Y6873*
X14441Y6886*
X14444Y6900*
X14447Y6914*
X14449Y6929*
X14450Y6944*
X14592Y14107D02*
X14710D01*
X14592Y16452D02*
X14710D01*
G54D14*
X1753Y6954D02*
Y7360D01*
Y7911D02*
X2152D01*
X2217Y7976*
G54D15*
X677Y22141D02*
Y21744D01*
X834Y21587*
Y21288*
X1677Y21473D02*
Y22141D01*
X6709Y11823D02*
X5933D01*
X7258Y12475D02*
Y12160D01*
X7260Y12158*
Y11823*
X8577Y11848D02*
X9160D01*
X9161*
X9368*
X9919D02*
Y12172D01*
X9917Y12174*
Y12479*
X12404Y11407D02*
X13785D01*
X12463Y8804D02*
Y9510D01*
X12469Y16342D02*
X13303D01*
X12474Y14216D02*
X13303D01*
X13785Y10407D02*
X14289D01*
X14463Y10233*
Y8804*
X14248Y12759D02*
Y14107D01*
Y17204D02*
X13699D01*
X13697Y17202*
X13490*
G54D16*
X834Y21288D02*
X391D01*
X218Y21116*
Y18322*
X1324Y17216*
X2780*
X2831Y17166*
X4924*
X1078Y9287D02*
X602Y8811D01*
Y6374*
X895Y6082*
X2222*
X2519Y6379*
X1247Y6396D02*
X1013Y6631D01*
Y8723*
X1391Y9102*
Y9939*
X1995Y10543*
X2025Y6396D02*
X1247D01*
X2217Y7976D02*
X2216Y7977D01*
Y8552*
X3075Y7314D02*
X2740D01*
X2646Y7221*
X2215*
X3700Y6570D02*
X3196D01*
X3075Y6692*
Y7314*
X4924Y17166D02*
X5478D01*
Y16837*
X5640Y16675*
Y16426*
X6390Y16421D02*
X6105D01*
X6100Y16426*
X5640*
X6390Y16421D02*
X6725D01*
X6803Y16343*
Y16156*
X7138*
X8791*
X9014Y16379*
Y17657*
X9637Y18280*
X9014Y16379D02*
X9237Y16156D01*
X9552*
X9553Y16157*
X9878*
X9637Y18280D02*
Y20253D01*
Y20477*
X8548Y21566*
X12318Y14767D02*
X13200D01*
G54D17*
X657Y5604D03*
X678Y14742D03*
Y15664D03*
X697Y16793D03*
X819Y18986D03*
X888Y1694D03*
X1078Y9287D03*
X1090Y5228D03*
X1097Y13462D03*
X1101Y12936D03*
X1457Y5604D03*
X1591Y13434D03*
X1753Y6954D03*
X1995Y10543D03*
X2025Y6396D03*
X2165Y21263D03*
X2215Y7221D03*
X2217Y7976D03*
X2347Y19270D03*
X2410Y16774D03*
X2419Y18016D03*
X2445Y15579D03*
X2519Y6379D03*
X2626Y14723D03*
X2651Y8321D03*
X2662Y8851D03*
X2758Y19363D03*
X2814Y20878D03*
X2912Y12046D03*
Y13187D03*
X2918Y3543D03*
X3010Y9661D03*
X3063Y13978D03*
X3127Y5697D03*
X3228Y18883D03*
X3393Y13674D03*
X3412Y13236D03*
X3435Y14299D03*
X3445Y20435D03*
X3499Y1835D03*
X3700Y6570D03*
X3747Y7224D03*
X3836Y11497D03*
X3884Y8219D03*
X3897Y20934D03*
X3917Y7602D03*
X4166Y4463D03*
X4225Y3663D03*
X4233Y2471D03*
X4346Y1821D03*
X4373Y6860D03*
X4419Y8549D03*
X4484Y19799D03*
X4488Y5795D03*
X4495Y4836D03*
X4542Y15562D03*
X4568Y16546D03*
X4633Y17728D03*
X4730Y7078D03*
Y2558D03*
X4852Y18454D03*
X4857Y19939D03*
X4902Y15662D03*
X4924Y17166D03*
X5134Y22527D03*
X5219Y9082D03*
X5241Y20868D03*
X5286Y18500D03*
X5378Y4875D03*
X5419Y5604D03*
X5455Y11227D03*
X5470Y20209D03*
X5644Y22113D03*
X5666Y15497D03*
X5691Y13674D03*
X5694Y17848D03*
X5708Y3028D03*
X5749Y4378D03*
X5761Y10836D03*
X5842Y20435D03*
X5870Y678D03*
X5908Y12848D02*
X8577D01*
X6039Y11236D03*
X6074Y21563D03*
X6080Y1523D03*
X6141Y7570D03*
X6143Y4881D03*
X6153Y13978D03*
X6194Y21257D03*
X6201Y22547D03*
X6265Y18513D03*
X6282Y15445D03*
X6428Y17835D03*
X6703Y664D03*
X6760Y18525D03*
X6823Y1506D03*
X6872Y13811D03*
X6908Y4894D03*
X6971Y6013D03*
X6972Y20758D03*
X7073Y6543D03*
X7138Y15748D03*
X7168Y9966D03*
X7220Y13945D03*
X7362Y3148D03*
X7398Y18506D03*
X7439Y10963D03*
X7503Y17520D03*
X7537Y17914D03*
X7550Y664D03*
X7679Y10389D03*
X7707Y9726D03*
X7769Y19789D03*
X7837Y4875D03*
X7856Y6334D03*
X8009Y15006D03*
X8202Y3142D03*
X8324Y22535D03*
X8337Y1609D03*
X8354Y650D03*
X8382Y13485D03*
X8431Y9109D03*
X8450Y10304D03*
X8497Y8140D03*
X8546Y22199D03*
X8548Y21566D03*
X8630Y15000D03*
X8709Y7667D03*
X8766Y4777D03*
X8827Y11010D03*
X8987Y8150D03*
X9027Y18508D03*
X9162Y3136D03*
X9286Y1483D03*
X9314Y650D03*
X9367Y22487D03*
X9443Y21075D03*
X9504Y10991D03*
X9569Y17323D03*
X9732Y16762D03*
X9878Y16157D03*
X9884Y6467D03*
X9894Y21894D03*
X10247Y11001D03*
X10283Y13780D03*
X10357Y8279D03*
X10461Y3561D03*
X10628Y19400D03*
X10657Y11744D03*
X10765Y6258D03*
X10784Y6870D03*
X11053Y19789D03*
X11108Y18883D03*
X11113Y10991D03*
X11144Y17284D03*
X11292Y10060D03*
X11339Y6889D03*
X11348Y6230D03*
X11468Y13655D03*
X11567Y14391D03*
X11728Y17337D03*
X11750Y3561D03*
X11977Y16734D03*
X12010Y15279D03*
X12152Y13648D03*
X12318Y14767D03*
X12334Y15534D03*
X12449Y8099D03*
X12463Y9510D03*
X12469Y16342D03*
X12474Y14216D03*
X12550Y5584D03*
X12559Y4219D03*
X12675Y10436D03*
X12948Y12045D03*
X13422Y9605D03*
X13434Y8055D03*
X13490Y17202D03*
X13641Y5565D03*
X14248Y12759D03*
X14402Y20483D03*
X14451Y8018D03*
X14510Y11979D03*
X14562Y18312D03*
X14573Y5555D03*
X14586Y18812D03*
X14600Y19812D03*
G54D18*
X5219Y8585D02*
Y9082D01*
X6135Y9396D02*
Y8743D01*
X5977Y8585*
X5771*
X12010Y15279D02*
X13200D01*
X12108Y15790D02*
X13200D01*
X12334Y15534D02*
X13200D01*
G54D19*
X1674Y15577D03*
Y16128D03*
X1680Y18717D03*
Y19268D03*
X1753Y7360D03*
Y7911D03*
X1866Y20054D03*
Y20605D03*
X2918Y3916D03*
Y4467D03*
X3075Y7314D03*
Y7866D03*
X5640Y15875D03*
Y16426D03*
X6390Y15870D03*
Y16421D03*
X7054Y17364D03*
Y17915D03*
X7138Y16156D03*
Y16707D03*
X8026Y20768D03*
Y21319D03*
X8208Y18528D03*
Y19079D03*
X11463Y12569D03*
Y13120D03*
X11466Y11437D03*
Y11988D03*
X12100Y19869D03*
Y20420D03*
X12172Y12570D03*
Y13122D03*
G54D20*
X4465Y20392D03*
Y20870D03*
X4858Y20392D03*
Y20870D03*
X6242Y1976D03*
X6636D03*
G54D21*
X834Y20028D03*
Y21288D03*
G54D22*
X677Y22141D03*
X5908Y11848D03*
X8577D03*
X11322Y22166D03*
X13785Y10407D03*
G54D23*
X1677Y22141D03*
X2677D03*
X3677D03*
X5908Y12848D03*
X8577D03*
X12322Y22166D03*
X13322D03*
X13785Y11407D03*
X14322Y22166D03*
G54D24*
X13200Y14767D03*
Y15023D03*
Y15279D03*
Y15534D03*
Y15790D03*
G54D25*
X13303Y14216D03*
Y16342D03*
G54D26*
X14248Y14107D03*
Y16452D03*
G54D27*
X13463Y8804D03*
X14463D03*
G54D28*
X12463D03*
G54D70*
X1665Y8552D03*
X2216D03*
X2927Y11497D03*
X3478D03*
X3497Y19741D03*
X4048D03*
X4394Y14877D03*
X4730Y7546D03*
X4945Y14877D03*
X5153Y2579D03*
Y3696D03*
X5219Y8585D03*
X5281Y7546D03*
X5478Y17166D03*
X5704Y2579D03*
Y3696D03*
X5771Y8585D03*
X6029Y17166D03*
X6364Y2579D03*
X6709Y11823D03*
X6760Y7075D03*
X6797Y22334D03*
X6915Y2579D03*
X7260Y11823D03*
X7311Y7075D03*
X7348Y22334D03*
X8477Y7078D03*
X8481Y5651D03*
Y6360D03*
X9028Y7078D03*
X9032Y5651D03*
Y6360D03*
X9368Y11848D03*
X9618Y7075D03*
X9919Y11848D03*
X10169Y7075D03*
X10747Y8396D03*
Y9112D03*
X11298Y8396D03*
Y9112D03*
G54D71*
X4344Y10179D03*
X4718Y9391D03*
X5092Y10179D03*
X5761Y10184D03*
X6135Y9396D03*
X6509Y10184D03*
X6884Y13263D03*
X6907Y8705D03*
X7258Y12475D03*
X7281Y7917D03*
X7632Y13263D03*
X7655Y8705D03*
X9543Y13267D03*
X9917Y12479D03*
X10291Y13267D03*
M02*
