*
G04 Job   : E:\2017\SWARM\HARDWARE\SWARM_SCHEMATICS\PCB\PCB.pcb*
G04 User  : WIN10:root*
G04 Layer : SolderPasteTop.gdo*
G04 Date  : Tue Dec 20 14:00:08 2016*
G04 Mentor Graphics Example Gerber Output Definition*
%ICAS*%
%MOIN*%
%FSLAX24Y24*%
%OFA0.0000B0.0000*%
G90*
G74*
%AMVB_RECTANGLE*
21,1,$1,$2,0,0,$3*
%
%AMVB_RCRECTANGLE*
$3=$3X2*
21,1,$1-$3,$2,0,0,0*
21,1,$1,$2-$3,0,0,0*
$1=$1/2*
$2=$2/2*
$3=$3/2*
$1=$1-$3*
$2=$2-$3*
1,1,$3X2,0-$1,0-$2*
1,1,$3X2,0-$1,$2*
1,1,$3X2,$1,$2*
1,1,$3X2,$1,0-$2*
%
%ADD20VB_RECTANGLE,0.01181X0.06299X270.00000*%
%ADD70VB_RECTANGLE,0.01181X0.07874X180.00000*%
%ADD18VB_RECTANGLE,0.01969X0.01102X90.00000*%
%ADD12VB_RECTANGLE,0.02362X0.03937X180.00000*%
%ADD23VB_RECTANGLE,0.03150X0.12205X90.00000*%
%ADD14VB_RECTANGLE,0.03543X0.06299X270.00000*%
%ADD10VB_RECTANGLE,0.03937X0.02362X270.00000*%
%ADD19VB_RECTANGLE,0.05906X0.12205X90.00000*%
%ADD22VB_RECTANGLE,0.05906X0.18898X0.00000*%
%ADD21VB_RECTANGLE,0.06299X0.01181X270.00000*%
%ADD13VB_RECTANGLE,0.06693X0.09843X0.00000*%
%ADD71VB_RECTANGLE,0.07087X0.18110X0.00000*%
%ADD11VB_RECTANGLE,0.07087X0.18110X270.00000*%
%ADD16VB_RCRECTANGLE,0.03150X0.00591X0.00295*%
%ADD17VB_RCRECTANGLE,0.00591X0.03150X0.00295*%
%ADD15VB_RCRECTANGLE,0.06693X0.06063X0.00591*%
G01*
G36*
X480Y2242D02*
X1543D01*
Y2832*
X480*
Y2242*
X491Y9743D02*
X1554D01*
Y10334*
X491*
Y9743*
X2322Y7455D02*
X2559D01*
Y7553*
X2322*
Y7455*
Y7652D02*
X2559D01*
Y7750*
X2322*
Y7652*
X2677Y7465D02*
X3307D01*
Y7740*
X2677*
Y7465*
X3425Y7455D02*
X3661D01*
Y7553*
X3425*
Y7455*
Y7652D02*
X3661D01*
Y7750*
X3425*
Y7652*
X4648Y6275D02*
X5711D01*
Y6866*
X4648*
Y6275*
G37*
G54D10*
X7458Y1609D03*
X8009D03*
X8894Y21877D03*
X9136Y4766D03*
X9445Y21877D03*
X9687Y4766D03*
X10480Y4902D03*
Y5614D03*
X10737Y7666D03*
X11031Y4902D03*
Y5614D03*
X11288Y7666D03*
G54D11*
X8383Y2512D03*
Y3811D03*
G54D12*
X6080Y1987D03*
Y3011D03*
X6454D03*
X6828Y1987D03*
Y3011D03*
G54D13*
X4908Y3818D03*
X6601D03*
G54D14*
X5379Y1928D03*
Y2558D03*
X8506Y6334D03*
Y6964D03*
G54D15*
X7366Y21799D03*
G54D16*
X6705Y21406D03*
Y22193D03*
X6717Y21563D03*
Y21721D03*
Y21878D03*
Y22036D03*
X8016Y21563D03*
Y21721D03*
Y21878D03*
Y22036D03*
X8028Y21406D03*
Y22193D03*
G54D17*
X6972Y21138D03*
Y22461D03*
X7130Y21150D03*
Y22449D03*
X7287Y21150D03*
Y22449D03*
X7445Y21150D03*
Y22449D03*
X7602Y21150D03*
Y22449D03*
X7760Y21138D03*
Y22461D03*
G54D18*
X2500Y7228D03*
Y7976D03*
X2696Y7228D03*
Y7976D03*
X2893Y7228D03*
Y7976D03*
X3090Y7228D03*
Y7976D03*
X3287Y7228D03*
Y7976D03*
X3482Y7228D03*
Y7976D03*
G54D19*
X1090Y3537D03*
Y4537D03*
X1101Y11039D03*
Y12039D03*
X2902Y3037D03*
Y4037D03*
Y5037D03*
X2912Y10539D03*
Y11539D03*
Y12539D03*
X5258Y7570D03*
Y8570D03*
X7069Y7070D03*
Y8070D03*
Y9070D03*
G54D20*
X3821Y15552D03*
Y15749D03*
Y15945D03*
Y16142D03*
Y16339D03*
Y16536D03*
Y16733D03*
Y16930D03*
Y17127D03*
Y17323D03*
Y17520D03*
Y17717D03*
Y17914D03*
Y18111D03*
Y18308D03*
Y18504D03*
X8152Y15552D03*
Y15749D03*
Y15945D03*
Y16142D03*
Y16339D03*
Y16536D03*
Y16733D03*
Y16930D03*
Y17127D03*
Y17323D03*
Y17520D03*
Y17717D03*
Y17914D03*
Y18111D03*
Y18308D03*
Y18504D03*
G54D21*
X4510Y14863D03*
Y19193D03*
X4707Y14863D03*
Y19193D03*
X4904Y14863D03*
Y19193D03*
X5101Y14863D03*
Y19193D03*
X5298Y14863D03*
Y19193D03*
X5494Y14863D03*
Y19193D03*
X5691Y14863D03*
Y19193D03*
X5888Y14863D03*
Y19193D03*
X6085Y14863D03*
Y19193D03*
X6282Y14863D03*
Y19193D03*
X6479Y14863D03*
Y19193D03*
X6676Y14863D03*
Y19193D03*
X6872Y14863D03*
Y19193D03*
X7069Y14863D03*
Y19193D03*
X7266Y14863D03*
Y19193D03*
X7463Y14863D03*
Y19193D03*
G54D22*
X1672Y15580D03*
Y19281D03*
G54D23*
X12125Y17812D03*
Y18312D03*
Y18812D03*
Y19312D03*
Y19812D03*
X13723Y17812D03*
Y18312D03*
Y18812D03*
Y19312D03*
Y19812D03*
G54D70*
X9293Y5738D03*
Y7667D03*
X9490Y5738D03*
Y7667D03*
X9687Y5738D03*
Y7667D03*
X9884Y5738D03*
Y7667D03*
X10081Y5738D03*
Y7667D03*
G54D71*
X9107Y9471D03*
X10406D03*
M02*
