*
G04 Job   : E:\2017\SWARM\HARDWARE\SWARM_SCHEMATICS\PCB\PCB.pcb*
G04 User  : WIN10:root*
G04 Layer : SolderPasteBottom.gdo*
G04 Date  : Tue Dec 20 14:00:09 2016*
G04 Mentor Graphics Example Gerber Output Definition*
%ICAS*%
%MOIN*%
%FSLAX24Y24*%
%OFA0.0000B0.0000*%
G90*
G74*
%AMVB_RECTANGLE*
21,1,$1,$2,0,0,$3*
%
%ADD15VB_RECTANGLE,0.01772X0.06299X270.00000*%
%ADD13VB_RECTANGLE,0.02756X0.01575X270.00000*%
%ADD12VB_RECTANGLE,0.03543X0.03150X270.00000*%
%ADD10VB_RECTANGLE,0.03937X0.02362X0.00000*%
%ADD11VB_RECTANGLE,0.03937X0.02362X90.00000*%
%ADD14VB_RECTANGLE,0.03937X0.07087X270.00000*%
%ADD16VB_RECTANGLE,0.05906X0.08661X270.00000*%
%ADD17VB_RECTANGLE,0.07480X0.20866X180.00000*%
G01*
G54D10*
X1674Y15577D03*
Y16128D03*
X1680Y18717D03*
Y19268D03*
X1753Y7360D03*
Y7911D03*
X1866Y20054D03*
Y20605D03*
X2918Y3916D03*
Y4467D03*
X3075Y7314D03*
Y7866D03*
X5640Y15875D03*
Y16426D03*
X6390Y15870D03*
Y16421D03*
X7054Y17364D03*
Y17915D03*
X7138Y16156D03*
Y16707D03*
X8026Y20768D03*
Y21319D03*
X8208Y18528D03*
Y19079D03*
X11463Y12569D03*
Y13120D03*
X11466Y11437D03*
Y11988D03*
X12100Y19869D03*
Y20420D03*
X12172Y12570D03*
Y13122D03*
G54D11*
X1665Y8552D03*
X2216D03*
X2927Y11497D03*
X3478D03*
X3497Y19741D03*
X4048D03*
X4394Y14877D03*
X4730Y7546D03*
X4945Y14877D03*
X5153Y2579D03*
Y3696D03*
X5219Y8585D03*
X5281Y7546D03*
X5478Y17166D03*
X5704Y2579D03*
Y3696D03*
X5771Y8585D03*
X6029Y17166D03*
X6364Y2579D03*
X6709Y11823D03*
X6760Y7075D03*
X6797Y22334D03*
X6915Y2579D03*
X7260Y11823D03*
X7311Y7075D03*
X7348Y22334D03*
X8477Y7078D03*
X8481Y5651D03*
Y6360D03*
X9028Y7078D03*
X9032Y5651D03*
Y6360D03*
X9368Y11848D03*
X9618Y7075D03*
X9919Y11848D03*
X10169Y7075D03*
X10747Y8396D03*
Y9112D03*
X11298Y8396D03*
Y9112D03*
G54D12*
X4344Y10179D03*
X4718Y9391D03*
X5092Y10179D03*
X5761Y10184D03*
X6135Y9396D03*
X6509Y10184D03*
X6884Y13263D03*
X6907Y8705D03*
X7258Y12475D03*
X7281Y7917D03*
X7632Y13263D03*
X7655Y8705D03*
X9543Y13267D03*
X9917Y12479D03*
X10291Y13267D03*
G54D13*
X4465Y20392D03*
Y20870D03*
X4858Y20392D03*
Y20870D03*
X6242Y1976D03*
X6636D03*
G54D14*
X834Y20028D03*
Y21288D03*
G54D15*
X13200Y14767D03*
Y15023D03*
Y15279D03*
Y15534D03*
Y15790D03*
G54D16*
X13303Y14216D03*
Y16342D03*
G54D17*
X14248Y14107D03*
Y16452D03*
M02*
