; Version : LOCAL
; Job     : E:\2017\SWARM\HARDWARE\SWARM_SCHEMATICS\PCB\PCB.pcb
; User    : WIN10:root
; Date    : Thu Jan 05 07:13:27 2017
; Format  : 3.3 / Absolute / MM / Leading
; Contents: Thru / Drill / Plated
M48
METRIC,TZ
FMAT,2
ICI,OFF
T03C0.3000
T01C1.0000
T02C1.1000
%
M71
G90
G93X0Y0
T03
X23658Y1650
X21220
X19177Y1686
X17026
X14910Y1722
X2255Y4304
X8887Y4662
X11038Y4626
X15443Y3870
X17331Y3826
X21176Y4086
X23587Y3766
X12015Y6497
X10752Y6275
X7411Y8998
X10731Y9303
X14498Y7691
X18698Y7996
X20834Y7980
X23271Y7964
X26570Y9044
X29845
X31900Y10717
X22265Y12132
X19905Y12382
X17547Y12430
X15603Y12398
X14603Y11119
X13659Y12382
X11417Y12283
X10582Y11336
X1669Y14235
X2770Y13278
X3700Y14235
X7942Y14471
X11401Y14720
X13763Y14235
X31876Y14183
X34649Y14135
X37015Y14111
X28825Y15824
X27391Y17449
X27343Y15896
X25105Y16426
X19955Y16090
X17965Y16620
X17707Y15274
X11107Y17424
X9398Y16689
X6399Y16203
X5145Y16246
X4453Y17663
X5626Y18341
X5631Y20260
X9516Y18349
X9949Y19310
X12015Y17979
X15599Y19229
X22122Y19473
X36704Y20365
X34123Y20461
X31621Y20572
X26308Y21030
X22826Y20700
X21583Y20676
X11224Y21716
X9864Y20876
X6763Y22481
X6733Y21135
X2738Y23590
X7645Y24540
X13257Y23068
X18207Y25314
X19576Y24703
X21416Y23138
X31656Y24156
X34091Y24397
X32195Y26508
X28682Y25552
X28227Y27918
X24140
X21463Y26173
X19504Y26388
X18895Y27847
X14633Y27524
X5068Y26780
X9742Y29203
X13857Y28517
X15339Y28540
X22419Y27966
X26029Y27942
X27069Y29830
X36856Y30428
X36189Y32407
X32888Y30595
X7397Y30598
X2797Y32857
X2787Y34193
X4042Y34122
X7397Y33496
X7780Y35503
X8619Y34732
X8667Y33620
X14456Y34732
X15628Y35503
X17455Y35080
X18340Y35421
X21290Y34253
X26118Y35002
X29129Y34683
X30866Y34667
X31684Y36107
X31289Y37507
X29381Y36552
X21920Y38099
X8724Y36320
X6670Y37396
X1723Y37444
Y39786
X6211Y39571
X11537Y39528
X12450Y39782
X14392Y39363
X15956Y39231
X18130Y40000
X20342Y38115
X30505Y38807
X31328Y39457
X31672Y41507
X30421Y42504
X25090Y41039
X24720Y42576
X11602Y42027
X6121Y42607
X1771Y42654
X11768Y45029
X12507Y43601
X14462Y45333
X16327Y45301
X19056Y44501
X19143Y45501
X24304Y44001
X28305Y43902
X29790Y44035
X34265Y43693
X37049Y47783
X36988Y46513
X28215Y47962
X22930Y47010
X18791Y47006
X17171Y47054
X15912Y47022
X13427Y46990
X12325Y46873
X8200Y47962
X6145Y45762
X2081Y48223
X5961Y48946
X7005Y49181
X11388Y50290
X12338Y50644
X19734Y50264
X26996Y49277
X28075Y50264
X37085Y50323
X36580Y52026
X17710Y52725
X14839Y51904
X13894Y51330
X13312Y53004
X9897Y53173
X8750Y51906
X7149Y53029
X5500Y54009
X15427Y54771
X15732Y53992
X21713Y54778
X23984Y53531
X25132Y55611
X23793Y57117
X21708Y56384
X21142Y57239
X15749Y57271
X14337Y56166
X13041Y57217
T01
X35015Y26435
X15005Y30095
X21786
X35015Y28975
X21786Y32635
X15005
X36378Y56303
X33838
X31298
X28758
X9339Y56238
X6799
X4259
X1719
T02
X36736Y22361
X34196
X31656
T00
M30
